<svg xmlns="http://www.w3.org/2000/svg" viewBox="0 0 750 500"><g id="freepik--background-complete--inject-16"><rect x="276.84" y="109.57" width="205.74" height="119.88" style="fill:#fff"></rect><path d="M483.28,230.16H276.13V108.86H483.28Z" style="fill:#ebebeb"></path><path d="M292.93,223.41c-.11,0-.2-24.51-.2-54.74s.09-54.75.2-54.75.19,24.51.19,54.75S293,223.41,292.93,223.41Z" style="fill:#e0e0e0"></path><path d="M288.7,118.53a29.17,29.17,0,0,1-6.82,0,30.7,30.7,0,0,1,6.82,0Z" style="fill:#e0e0e0"></path><path d="M288.7,125.75a29.17,29.17,0,0,1-6.82,0,29.17,29.17,0,0,1,6.82,0Z" style="fill:#e0e0e0"></path><path d="M288.7,133a30.7,30.7,0,0,1-6.82,0,29.17,29.17,0,0,1,6.82,0Z" style="fill:#e0e0e0"></path><path d="M288.7,140.18a29.17,29.17,0,0,1-6.82,0,29.17,29.17,0,0,1,6.82,0Z" style="fill:#e0e0e0"></path><path d="M288.7,147.4a30.7,30.7,0,0,1-6.82,0,29.17,29.17,0,0,1,6.82,0Z" style="fill:#e0e0e0"></path><path d="M288.7,154.61a29.17,29.17,0,0,1-6.82,0,29.17,29.17,0,0,1,6.82,0Z" style="fill:#e0e0e0"></path><path d="M288.7,161.83a30.7,30.7,0,0,1-6.82,0,29.17,29.17,0,0,1,6.82,0Z" style="fill:#e0e0e0"></path><path d="M288.7,169a29.17,29.17,0,0,1-6.82,0,29.17,29.17,0,0,1,6.82,0Z" style="fill:#e0e0e0"></path><path d="M288.7,176.26a30.7,30.7,0,0,1-6.82,0,29.17,29.17,0,0,1,6.82,0Z" style="fill:#e0e0e0"></path><path d="M288.7,183.47a29.17,29.17,0,0,1-6.82,0,29.17,29.17,0,0,1,6.82,0Z" style="fill:#e0e0e0"></path><path d="M288.7,190.69a30.7,30.7,0,0,1-6.82,0,29.17,29.17,0,0,1,6.82,0Z" style="fill:#e0e0e0"></path><path d="M288.7,197.9a29.17,29.17,0,0,1-6.82,0,29.17,29.17,0,0,1,6.82,0Z" style="fill:#e0e0e0"></path><path d="M288.7,205.12a30.7,30.7,0,0,1-6.82,0,29.17,29.17,0,0,1,6.82,0Z" style="fill:#e0e0e0"></path><path d="M288.7,212.33a29.17,29.17,0,0,1-6.82,0,30.7,30.7,0,0,1,6.82,0Z" style="fill:#e0e0e0"></path><path d="M288.7,219.55a30.7,30.7,0,0,1-6.82,0,29.17,29.17,0,0,1,6.82,0Z" style="fill:#e0e0e0"></path><path d="M316,118.11c0,.11-4,.2-8.84.2s-8.85-.09-8.85-.2,4-.2,8.85-.2S316,118,316,118.11Z" style="fill:#e0e0e0"></path><path d="M316,219.55c0,.11-4,.19-8.84.19s-8.85-.08-8.85-.19,4-.2,8.85-.2S316,219.44,316,219.55Z" style="fill:#e0e0e0"></path><path d="M340.63,133c0,.1-7.4.19-16.54.19s-16.54-.09-16.54-.19,7.4-.2,16.54-.2S340.63,132.86,340.63,133Z" style="fill:#e0e0e0"></path><path d="M378.89,133c0,.1-7.41.19-16.54.19s-16.55-.09-16.55-.19,7.41-.2,16.55-.2S378.89,132.86,378.89,133Z" style="fill:#e0e0e0"></path><path d="M364.27,140.18c0,.11-10.92.2-24.38.2s-24.38-.09-24.38-.2,10.91-.2,24.38-.2S364.27,140.07,364.27,140.18Z" style="fill:#e0e0e0"></path><path d="M364.27,147.4c0,.1-10.92.19-24.38.19s-24.38-.09-24.38-.19,10.91-.2,24.38-.2S364.27,147.29,364.27,147.4Z" style="fill:#e0e0e0"></path><path d="M397.83,169c0,.11-10.92.2-24.38.2s-24.38-.09-24.38-.2,10.92-.2,24.38-.2S397.83,168.93,397.83,169Z" style="fill:#e0e0e0"></path><path d="M383.35,154.61c0,.11-10.92.2-24.38.2s-24.38-.09-24.38-.2,10.91-.2,24.38-.2S383.35,154.5,383.35,154.61Z" style="fill:#e0e0e0"></path><path d="M442.93,154.61c0,.11-10.92.2-24.38.2s-24.38-.09-24.38-.2,10.92-.2,24.38-.2S442.93,154.5,442.93,154.61Z" style="fill:#e0e0e0"></path><path d="M422.21,140.18c0,.11-10.92.2-24.38.2s-24.38-.09-24.38-.2,10.91-.2,24.38-.2S422.21,140.07,422.21,140.18Z" style="fill:#e0e0e0"></path><path d="M455.89,169c0,.11-10.92.2-24.38.2s-24.38-.09-24.38-.2,10.91-.2,24.38-.2S455.89,168.93,455.89,169Z" style="fill:#e0e0e0"></path><path d="M449.16,147.4c0,.1-17,.19-37.85.19s-37.86-.09-37.86-.19,16.95-.2,37.86-.2S449.16,147.29,449.16,147.4Z" style="fill:#e0e0e0"></path><path d="M316,125.75c0,.11-4,.2-8.84.2s-8.85-.09-8.85-.2,4-.2,8.85-.2S316,125.64,316,125.75Z" style="fill:#e0e0e0"></path><path d="M316,212.33c0,.11-4,.2-8.84.2s-8.85-.09-8.85-.2,4-.19,8.85-.19S316,212.22,316,212.33Z" style="fill:#e0e0e0"></path><path d="M324.77,154.61c0,.11-4,.2-8.84.2s-8.85-.09-8.85-.2,4-.2,8.85-.2S324.77,154.5,324.77,154.61Z" style="fill:#e0e0e0"></path><path d="M466.49,154.61c0,.11-4,.2-8.84.2s-8.84-.09-8.84-.2,3.95-.2,8.84-.2S466.49,154.5,466.49,154.61Z" style="fill:#e0e0e0"></path><path d="M340.63,183.43c0,.11-7.4.2-16.54.2s-16.54-.09-16.54-.2,7.4-.2,16.54-.2S340.63,183.32,340.63,183.43Z" style="fill:#e0e0e0"></path><path d="M378.89,183.43c0,.11-7.41.2-16.54.2s-16.55-.09-16.55-.2,7.41-.2,16.55-.2S378.89,183.32,378.89,183.43Z" style="fill:#e0e0e0"></path><path d="M364.27,190.64c0,.11-10.92.2-24.38.2s-24.38-.09-24.38-.2,10.91-.19,24.38-.19S364.27,190.54,364.27,190.64Z" style="fill:#e0e0e0"></path><path d="M364.27,197.86c0,.11-10.92.2-24.38.2s-24.38-.09-24.38-.2,10.91-.2,24.38-.2S364.27,197.75,364.27,197.86Z" style="fill:#e0e0e0"></path><path d="M383.35,205.07c0,.11-10.92.2-24.38.2s-24.38-.09-24.38-.2,10.91-.19,24.38-.19S383.35,205,383.35,205.07Z" style="fill:#e0e0e0"></path><path d="M442.93,205.07c0,.11-10.92.2-24.38.2s-24.38-.09-24.38-.2,10.92-.19,24.38-.19S442.93,205,442.93,205.07Z" style="fill:#e0e0e0"></path><path d="M422.21,190.64c0,.11-10.92.2-24.38.2s-24.38-.09-24.38-.2,10.91-.19,24.38-.19S422.21,190.54,422.21,190.64Z" style="fill:#e0e0e0"></path><path d="M449.16,197.86c0,.11-17,.2-37.85.2s-37.86-.09-37.86-.2,16.95-.2,37.86-.2S449.16,197.75,449.16,197.86Z" style="fill:#e0e0e0"></path><path d="M324.77,205.07c0,.11-4,.2-8.84.2s-8.85-.09-8.85-.2,4-.19,8.85-.19S324.77,205,324.77,205.07Z" style="fill:#e0e0e0"></path><path d="M466.49,205.07c0,.11-4,.2-8.84.2s-8.84-.09-8.84-.2,3.95-.19,8.84-.19S466.49,205,466.49,205.07Z" style="fill:#e0e0e0"></path><rect x="38.98" y="174.26" width="69.96" height="49.87" style="fill:#e0e0e0"></rect><path d="M109.48,181.66c0,.12-15.79.22-35.26.22S39,181.78,39,181.66s15.78-.22,35.27-.22S109.48,181.54,109.48,181.66Z" style="fill:#fff"></path><path d="M44.69,178a.9.9,0,0,1-.95.83.84.84,0,1,1,0-1.66A.9.9,0,0,1,44.69,178Z" style="fill:#fff"></path><path d="M48.12,178a.95.95,0,1,1-.94-.83A.89.89,0,0,1,48.12,178Z" style="fill:#fff"></path><path d="M51.55,178a.95.95,0,1,1-.94-.83A.89.89,0,0,1,51.55,178Z" style="fill:#fff"></path><rect x="254.32" y="247.75" width="105.52" height="61.49" style="fill:#fff"></rect><path d="M360.21,309.6H254V247.39H360.21Z" style="fill:#f5f5f5"></path><path d="M262.58,306.14c-.06,0-.11-12.57-.11-28.08s0-28.08.11-28.08.1,12.57.1,28.08S262.63,306.14,262.58,306.14Z" style="fill:#e0e0e0"></path><path d="M260.41,252.35a15.36,15.36,0,0,1-3.5,0,15.36,15.36,0,0,1,3.5,0Z" style="fill:#e0e0e0"></path><path d="M260.41,256.05a15.36,15.36,0,0,1-3.5,0,15.36,15.36,0,0,1,3.5,0Z" style="fill:#e0e0e0"></path><path d="M260.41,259.75a15.36,15.36,0,0,1-3.5,0,15.36,15.36,0,0,1,3.5,0Z" style="fill:#e0e0e0"></path><path d="M260.41,263.45a15.36,15.36,0,0,1-3.5,0,15.36,15.36,0,0,1,3.5,0Z" style="fill:#e0e0e0"></path><path d="M260.41,267.15a15.36,15.36,0,0,1-3.5,0,15.36,15.36,0,0,1,3.5,0Z" style="fill:#e0e0e0"></path><path d="M260.41,270.85a15.36,15.36,0,0,1-3.5,0,15.36,15.36,0,0,1,3.5,0Z" style="fill:#e0e0e0"></path><path d="M260.41,274.55a15.36,15.36,0,0,1-3.5,0,15.36,15.36,0,0,1,3.5,0Z" style="fill:#e0e0e0"></path><path d="M260.41,278.25a15.36,15.36,0,0,1-3.5,0,15.36,15.36,0,0,1,3.5,0Z" style="fill:#e0e0e0"></path><path d="M260.41,282a15.36,15.36,0,0,1-3.5,0,15.36,15.36,0,0,1,3.5,0Z" style="fill:#e0e0e0"></path><path d="M260.41,285.65a14,14,0,0,1-3.5,0,15.36,15.36,0,0,1,3.5,0Z" style="fill:#e0e0e0"></path><path d="M260.41,289.36a15.36,15.36,0,0,1-3.5,0,14,14,0,0,1,3.5,0Z" style="fill:#e0e0e0"></path><path d="M260.41,293.06a15.36,15.36,0,0,1-3.5,0,14,14,0,0,1,3.5,0Z" style="fill:#e0e0e0"></path><path d="M260.41,296.76a15.36,15.36,0,0,1-3.5,0,15.36,15.36,0,0,1,3.5,0Z" style="fill:#e0e0e0"></path><path d="M260.41,300.46a15.36,15.36,0,0,1-3.5,0,15.36,15.36,0,0,1,3.5,0Z" style="fill:#e0e0e0"></path><path d="M260.41,304.16a15.36,15.36,0,0,1-3.5,0,15.36,15.36,0,0,1,3.5,0Z" style="fill:#e0e0e0"></path><path d="M274.41,252.13c0,.06-2,.1-4.53.1s-4.54,0-4.54-.1,2-.1,4.54-.1S274.41,252.07,274.41,252.13Z" style="fill:#e0e0e0"></path><path d="M274.41,304.16s-2,.1-4.53.1-4.54-.05-4.54-.1,2-.1,4.54-.1S274.41,304.1,274.41,304.16Z" style="fill:#e0e0e0"></path><path d="M287,259.75c0,.06-3.8.1-8.48.1s-8.49,0-8.49-.1,3.8-.1,8.49-.1S287,259.69,287,259.75Z" style="fill:#e0e0e0"></path><path d="M306.67,259.75c0,.06-3.8.1-8.49.1s-8.48,0-8.48-.1,3.79-.1,8.48-.1S306.67,259.69,306.67,259.75Z" style="fill:#e0e0e0"></path><path d="M299.17,263.45c0,.06-5.6.1-12.51.1s-12.5,0-12.5-.1,5.6-.1,12.5-.1S299.17,263.39,299.17,263.45Z" style="fill:#e0e0e0"></path><path d="M299.17,267.15c0,.06-5.6.1-12.51.1s-12.5,0-12.5-.1,5.6-.1,12.5-.1S299.17,267.1,299.17,267.15Z" style="fill:#e0e0e0"></path><path d="M316.38,278.25c0,.06-5.6.1-12.5.1s-12.51,0-12.51-.1,5.6-.1,12.51-.1S316.38,278.2,316.38,278.25Z" style="fill:#e0e0e0"></path><path d="M309,270.85c0,.06-5.6.1-12.5.1s-12.51,0-12.51-.1,5.6-.1,12.51-.1S309,270.8,309,270.85Z" style="fill:#e0e0e0"></path><path d="M339.51,270.85c0,.06-5.6.1-12.5.1s-12.51,0-12.51-.1,5.6-.1,12.51-.1S339.51,270.8,339.51,270.85Z" style="fill:#e0e0e0"></path><path d="M328.88,263.45c0,.06-5.59.1-12.5.1s-12.5,0-12.5-.1,5.59-.1,12.5-.1S328.88,263.39,328.88,263.45Z" style="fill:#e0e0e0"></path><path d="M346.16,278.25c0,.06-5.6.1-12.5.1s-12.51,0-12.51-.1,5.6-.1,12.51-.1S346.16,278.2,346.16,278.25Z" style="fill:#e0e0e0"></path><path d="M342.71,267.15c0,.06-8.69.1-19.42.1s-19.41,0-19.41-.1,8.69-.1,19.41-.1S342.71,267.1,342.71,267.15Z" style="fill:#e0e0e0"></path><path d="M274.41,256.05c0,.05-2,.1-4.53.1s-4.54,0-4.54-.1,2-.1,4.54-.1S274.41,256,274.41,256.05Z" style="fill:#e0e0e0"></path><path d="M274.41,300.46c0,.05-2,.1-4.53.1s-4.54-.05-4.54-.1,2-.1,4.54-.1S274.41,300.4,274.41,300.46Z" style="fill:#e0e0e0"></path><path d="M278.91,270.85c0,.06-2,.1-4.54.1s-4.53,0-4.53-.1,2-.1,4.53-.1S278.91,270.8,278.91,270.85Z" style="fill:#e0e0e0"></path><path d="M351.6,270.85c0,.06-2,.1-4.54.1s-4.53,0-4.53-.1,2-.1,4.53-.1S351.6,270.8,351.6,270.85Z" style="fill:#e0e0e0"></path><path d="M287,285.63c0,.06-3.8.1-8.48.1s-8.49,0-8.49-.1,3.8-.1,8.49-.1S287,285.58,287,285.63Z" style="fill:#e0e0e0"></path><path d="M306.67,285.63c0,.06-3.8.1-8.49.1s-8.48,0-8.48-.1,3.79-.1,8.48-.1S306.67,285.58,306.67,285.63Z" style="fill:#e0e0e0"></path><path d="M299.17,289.33c0,.06-5.6.1-12.51.1s-12.5,0-12.5-.1,5.6-.1,12.5-.1S299.17,289.28,299.17,289.33Z" style="fill:#e0e0e0"></path><path d="M299.17,293c0,.06-5.6.11-12.51.11s-12.5-.05-12.5-.11,5.6-.1,12.5-.1S299.17,293,299.17,293Z" style="fill:#e0e0e0"></path><path d="M309,296.73c0,.06-5.6.11-12.5.11s-12.51,0-12.51-.11,5.6-.1,12.51-.1S309,296.68,309,296.73Z" style="fill:#e0e0e0"></path><path d="M339.51,296.73c0,.06-5.6.11-12.5.11s-12.51,0-12.51-.11,5.6-.1,12.51-.1S339.51,296.68,339.51,296.73Z" style="fill:#e0e0e0"></path><path d="M328.88,289.33c0,.06-5.59.1-12.5.1s-12.5,0-12.5-.1,5.59-.1,12.5-.1S328.88,289.28,328.88,289.33Z" style="fill:#e0e0e0"></path><path d="M342.71,293c0,.06-8.69.11-19.42.11s-19.41-.05-19.41-.11,8.69-.1,19.41-.1S342.71,293,342.71,293Z" style="fill:#e0e0e0"></path><path d="M278.91,296.73c0,.06-2,.11-4.54.11s-4.53,0-4.53-.11,2-.1,4.53-.1S278.91,296.68,278.91,296.73Z" style="fill:#e0e0e0"></path><path d="M351.6,296.73c0,.06-2,.11-4.54.11s-4.53,0-4.53-.11,2-.1,4.53-.1S351.6,296.68,351.6,296.73Z" style="fill:#e0e0e0"></path><rect x="555.98" y="43.32" width="105.52" height="61.49" style="fill:#fff"></rect><path d="M661.86,105.17H555.61V43H661.86Z" style="fill:#f5f5f5"></path><path d="M564.23,101.71c-.06,0-.1-12.57-.1-28.08s0-28.08.1-28.08.1,12.57.1,28.08S564.28,101.71,564.23,101.71Z" style="fill:#e0e0e0"></path><path d="M562.06,47.92a15.36,15.36,0,0,1-3.5,0,15.36,15.36,0,0,1,3.5,0Z" style="fill:#e0e0e0"></path><path d="M562.06,51.62a15.36,15.36,0,0,1-3.5,0,15.36,15.36,0,0,1,3.5,0Z" style="fill:#e0e0e0"></path><path d="M562.06,55.32a15.36,15.36,0,0,1-3.5,0,15.36,15.36,0,0,1,3.5,0Z" style="fill:#e0e0e0"></path><path d="M562.06,59a15.36,15.36,0,0,1-3.5,0,15.36,15.36,0,0,1,3.5,0Z" style="fill:#e0e0e0"></path><path d="M562.06,62.72a15.36,15.36,0,0,1-3.5,0,15.36,15.36,0,0,1,3.5,0Z" style="fill:#e0e0e0"></path><path d="M562.06,66.42a15.36,15.36,0,0,1-3.5,0,15.36,15.36,0,0,1,3.5,0Z" style="fill:#e0e0e0"></path><path d="M562.06,70.12a15.36,15.36,0,0,1-3.5,0,15.36,15.36,0,0,1,3.5,0Z" style="fill:#e0e0e0"></path><path d="M562.06,73.82a15.36,15.36,0,0,1-3.5,0,15.36,15.36,0,0,1,3.5,0Z" style="fill:#e0e0e0"></path><path d="M562.06,77.52a15.36,15.36,0,0,1-3.5,0,15.36,15.36,0,0,1,3.5,0Z" style="fill:#e0e0e0"></path><path d="M562.06,81.22a15.36,15.36,0,0,1-3.5,0,15.36,15.36,0,0,1,3.5,0Z" style="fill:#e0e0e0"></path><path d="M562.06,84.92a14,14,0,0,1-3.5,0,15.36,15.36,0,0,1,3.5,0Z" style="fill:#e0e0e0"></path><path d="M562.06,88.62a14,14,0,0,1-3.5,0,15.36,15.36,0,0,1,3.5,0Z" style="fill:#e0e0e0"></path><path d="M562.06,92.33a15.36,15.36,0,0,1-3.5,0,14,14,0,0,1,3.5,0Z" style="fill:#e0e0e0"></path><path d="M562.06,96a15.36,15.36,0,0,1-3.5,0,15.36,15.36,0,0,1,3.5,0Z" style="fill:#e0e0e0"></path><path d="M562.06,99.73a15.36,15.36,0,0,1-3.5,0,15.36,15.36,0,0,1,3.5,0Z" style="fill:#e0e0e0"></path><path d="M576.07,47.7c0,.06-2,.1-4.54.1s-4.53,0-4.53-.1,2-.1,4.53-.1S576.07,47.64,576.07,47.7Z" style="fill:#e0e0e0"></path><path d="M576.07,99.73s-2,.1-4.54.1-4.53,0-4.53-.1,2-.1,4.53-.1S576.07,99.67,576.07,99.73Z" style="fill:#e0e0e0"></path><path d="M588.7,55.32s-3.8.1-8.49.1-8.48-.05-8.48-.1,3.8-.1,8.48-.1S588.7,55.26,588.7,55.32Z" style="fill:#e0e0e0"></path><path d="M608.32,55.32s-3.8.1-8.49.1-8.48-.05-8.48-.1,3.8-.1,8.48-.1S608.32,55.26,608.32,55.32Z" style="fill:#e0e0e0"></path><path d="M600.82,59c0,.06-5.6.1-12.5.1s-12.51,0-12.51-.1,5.6-.1,12.51-.1S600.82,59,600.82,59Z" style="fill:#e0e0e0"></path><path d="M600.82,62.72c0,.06-5.6.1-12.5.1s-12.51,0-12.51-.1,5.6-.1,12.51-.1S600.82,62.66,600.82,62.72Z" style="fill:#e0e0e0"></path><path d="M618,73.82c0,.06-5.59.1-12.5.1s-12.5,0-12.5-.1,5.59-.1,12.5-.1S618,73.77,618,73.82Z" style="fill:#e0e0e0"></path><path d="M610.61,66.42c0,.06-5.6.1-12.51.1s-12.5,0-12.5-.1,5.59-.1,12.5-.1S610.61,66.37,610.61,66.42Z" style="fill:#e0e0e0"></path><path d="M641.17,66.42c0,.06-5.6.1-12.51.1s-12.5,0-12.5-.1,5.6-.1,12.5-.1S641.17,66.37,641.17,66.42Z" style="fill:#e0e0e0"></path><path d="M630.54,59c0,.06-5.6.1-12.51.1s-12.5,0-12.5-.1,5.6-.1,12.5-.1S630.54,59,630.54,59Z" style="fill:#e0e0e0"></path><path d="M647.81,73.82c0,.06-5.6.1-12.5.1s-12.51,0-12.51-.1,5.6-.1,12.51-.1S647.81,73.77,647.81,73.82Z" style="fill:#e0e0e0"></path><path d="M644.36,62.72c0,.06-8.69.1-19.41.1s-19.42,0-19.42-.1,8.69-.1,19.42-.1S644.36,62.66,644.36,62.72Z" style="fill:#e0e0e0"></path><path d="M576.07,51.62c0,.05-2,.1-4.54.1s-4.53,0-4.53-.1,2-.1,4.53-.1S576.07,51.56,576.07,51.62Z" style="fill:#e0e0e0"></path><path d="M576.07,96s-2,.1-4.54.1-4.53,0-4.53-.1,2-.1,4.53-.1S576.07,96,576.07,96Z" style="fill:#e0e0e0"></path><path d="M580.56,66.42c0,.06-2,.1-4.53.1s-4.54,0-4.54-.1,2-.1,4.54-.1S580.56,66.37,580.56,66.42Z" style="fill:#e0e0e0"></path><path d="M653.25,66.42c0,.06-2,.1-4.54.1s-4.53,0-4.53-.1,2-.1,4.53-.1S653.25,66.37,653.25,66.42Z" style="fill:#e0e0e0"></path><path d="M588.7,81.2c0,.06-3.8.1-8.49.1s-8.48,0-8.48-.1,3.8-.1,8.48-.1S588.7,81.15,588.7,81.2Z" style="fill:#e0e0e0"></path><path d="M608.32,81.2c0,.06-3.8.1-8.49.1s-8.48,0-8.48-.1,3.8-.1,8.48-.1S608.32,81.15,608.32,81.2Z" style="fill:#e0e0e0"></path><path d="M600.82,84.9c0,.06-5.6.1-12.5.1s-12.51,0-12.51-.1,5.6-.1,12.51-.1S600.82,84.85,600.82,84.9Z" style="fill:#e0e0e0"></path><path d="M600.82,88.6c0,.06-5.6.1-12.5.1s-12.51,0-12.51-.1,5.6-.1,12.51-.1S600.82,88.55,600.82,88.6Z" style="fill:#e0e0e0"></path><path d="M610.61,92.3c0,.06-5.6.1-12.51.1s-12.5,0-12.5-.1,5.59-.1,12.5-.1S610.61,92.25,610.61,92.3Z" style="fill:#e0e0e0"></path><path d="M641.17,92.3c0,.06-5.6.1-12.51.1s-12.5,0-12.5-.1,5.6-.1,12.5-.1S641.17,92.25,641.17,92.3Z" style="fill:#e0e0e0"></path><path d="M630.54,84.9c0,.06-5.6.1-12.51.1s-12.5,0-12.5-.1,5.6-.1,12.5-.1S630.54,84.85,630.54,84.9Z" style="fill:#e0e0e0"></path><path d="M644.36,88.6c0,.06-8.69.1-19.41.1s-19.42,0-19.42-.1,8.69-.1,19.42-.1S644.36,88.55,644.36,88.6Z" style="fill:#e0e0e0"></path><path d="M580.56,92.3c0,.06-2,.1-4.53.1s-4.54,0-4.54-.1,2-.1,4.54-.1S580.56,92.25,580.56,92.3Z" style="fill:#e0e0e0"></path><path d="M653.25,92.3c0,.06-2,.1-4.54.1s-4.53,0-4.53-.1,2-.1,4.53-.1S653.25,92.25,653.25,92.3Z" style="fill:#e0e0e0"></path><path d="M687.24,189.43a4.41,4.41,0,0,1,.78-.88l2.26-2.28c1.93-1.9,4.61-4.5,7.6-7.36l.07-.06v.38c-3-2.79-5.71-5.35-7.65-7.21L688,169.79a4.24,4.24,0,0,1-.78-.87,5.61,5.61,0,0,1,.92.72l2.39,2.11c2,1.79,4.75,4.3,7.76,7.1l.21.19-.21.19-.07.07c-3,2.85-5.71,5.41-7.7,7.24l-2.38,2.15A5.24,5.24,0,0,1,687.24,189.43Z" style="fill:#e0e0e0"></path><path d="M664,168.92a5.1,5.1,0,0,1-.78.89L661,172.08c-1.93,1.91-4.62,4.51-7.61,7.36l-.06.06v-.38c3,2.8,5.72,5.35,7.66,7.21l2.27,2.23a5.55,5.55,0,0,1,.79.87,5,5,0,0,1-.92-.72l-2.39-2.1c-2-1.8-4.75-4.31-7.76-7.1l-.21-.19.2-.2.07-.06c3-2.85,5.72-5.41,7.71-7.25l2.38-2.15A5.42,5.42,0,0,1,664,168.92Z" style="fill:#e0e0e0"></path><path d="M670,194.26c-.14,0,2.3-6.91,5.45-15.32s5.8-15.18,5.94-15.13-2.31,6.91-5.45,15.32S670.09,194.31,670,194.26Z" style="fill:#e0e0e0"></path><path d="M713.66,208.94s0-.4,0-1.15,0-1.86,0-3.3c0-2.9,0-7.12-.06-12.5,0-10.75-.07-26.13-.11-44.67l.22.22-75.62,0h0l.27-.26c0,22.28,0,43.31,0,61.62l-.24-.24,54.61.12,15.48.06,4.11,0,1.06,0h0l-1,0-4.06,0-15.43.07-54.76.11h-.23v-.23c0-18.31,0-39.34,0-61.62v-.26H638l75.62,0h.22v.22c0,18.6-.09,34-.12,44.81,0,5.36,0,9.56,0,12.45,0,1.42,0,2.5,0,3.26S713.66,208.94,713.66,208.94Z" style="fill:#e0e0e0"></path><path d="M714.25,156.46c0,.15-17.07.27-38.12.27s-38.13-.12-38.13-.27,17.07-.26,38.13-.26S714.25,156.32,714.25,156.46Z" style="fill:#e0e0e0"></path><path d="M644.21,152a1,1,0,1,1-1-1A1,1,0,0,1,644.21,152Z" style="fill:#e0e0e0"></path><path d="M647.92,152a1,1,0,1,1-1-1A1,1,0,0,1,647.92,152Z" style="fill:#e0e0e0"></path><path d="M651.63,152a1,1,0,1,1-1-1A1,1,0,0,1,651.63,152Z" style="fill:#e0e0e0"></path></g><g id="freepik--character-2--inject-16"><path d="M700.27,444.39l11.72-124a16.87,16.87,0,0,0-16.45-18.45L565.1,299.29A16.87,16.87,0,0,0,548,314.8L538,444.34Z" style="fill:#455a64"></path><path d="M681.77,444.38a2.09,2.09,0,0,1,0-.44c0-.31.06-.74.1-1.29.1-1.16.25-2.83.43-5,.4-4.33,1-10.56,1.68-18.25,1.47-15.43,3.49-36.71,5.73-60.21,1.78-18.3,3.43-35.25,4.78-49.05v0c0-.68,0-1.36,0-2a8.19,8.19,0,0,0-.19-1.94,5.75,5.75,0,0,0-2-3A5.68,5.68,0,0,0,689,302l-3.43-.09-11.43-.28-7.31-.2-1.91-.07c-.44,0-.66,0-.66,0s.22,0,.66,0h1.92l7.31.09,11.43.18,3.43.06a6.1,6.1,0,0,1,5.63,4.52,8.11,8.11,0,0,1,.21,2l.06,2.05h0v0c-1.32,13.79-2.94,30.75-4.68,49-2.3,23.5-4.38,44.77-5.89,60.19-.77,7.69-1.4,13.91-1.84,18.24-.22,2.13-.4,3.8-.53,5-.06.55-.11,1-.15,1.29S681.77,444.38,681.77,444.38Z" style="fill:#263238"></path><path d="M524.94,348.77c-1.75.05-14,22.14-22.93,38.8a31.92,31.92,0,0,1-30.36,16.71h0a31.93,31.93,0,0,1-29.36-27.12L434.76,291l30.16-7.46L477.24,351l7.56-21.45Z" style="fill:#b78876"></path><path d="M465.19,289.78l-1-15.12s-4.27-33.94-4.27-37.25c0-3.83-1.83-4.75-3.24-4.66-2.2.15-3.76,2.85-3.87,6.14,0,1.13.11,19.07.11,19.07a41.34,41.34,0,0,0-3.48-4.84c-2.65-3.36-8.88-5.28-15.27-5.08s-8.16.83-8.2,3.32a3.16,3.16,0,0,0,1.26,2.41,6.23,6.23,0,0,0,4.21,1.45c10.24-.18,13,5.29,13,5.29l.13,2s-6.22-4.45-11.18-2.57a6.05,6.05,0,0,0-2,1.22,8,8,0,0,0-6.94,11.95c.66,1.18,1.89,2.28,3.22,2a4.26,4.26,0,0,0,1.81-1.1,6,6,0,0,1,.91-.68l1.15,5.49s3.23,12.2,4,17.67" style="fill:#b78876"></path><path d="M462.25,288.55c-1.88.51-3.81-.87-4.82-2.53s-1.44-3.62-2.33-5.35c-2.67-5.18-9.12-7.66-11.53-13-.34-.74-.52-1.76.13-2.24s1.45-.1,2.11.27l16.88,9.35" style="fill:#b78876"></path><path d="M462.69,275.09a7.28,7.28,0,0,0-1.72-1.2c-1.14-.71-2.82-1.7-4.89-2.91l-7.33-4.19-2.13-1.2c-.7-.33-1.47-1.07-2.78-.79a1.62,1.62,0,0,0-1.11,1.45,3.28,3.28,0,0,0,.28,1.55,12.85,12.85,0,0,0,1.45,2.45c2.34,3,5.36,4.94,7.54,7.16a14.18,14.18,0,0,1,2.67,3.43c.64,1.2,1.05,2.45,1.54,3.57a6.82,6.82,0,0,0,3.91,4.22,2.49,2.49,0,0,0,2.13-.08,5.64,5.64,0,0,1-2-.33,6.55,6.55,0,0,1-3.34-4.1,39.23,39.23,0,0,0-1.45-3.7,15,15,0,0,0-2.76-3.73c-2.24-2.33-5.23-4.29-7.38-7.11a11.66,11.66,0,0,1-1.32-2.2c-.32-.73-.28-1.48.15-1.55s1.22.27,1.94.68l2.15,1.16,7.44,4c2.13,1.12,3.86,2,5.06,2.6A8.12,8.12,0,0,0,462.69,275.09Z" style="fill:#aa6550"></path><path d="M444.81,262.58a8,8,0,0,0-1.17-3.45,6.2,6.2,0,0,0-3.12-2.26,15.86,15.86,0,0,0-4.85-.7,25.5,25.5,0,0,1-5.06-.44,8,8,0,0,1-3.76-1.88,3.13,3.13,0,0,1-1-2.65,2,2,0,0,1,.33-1c.07,0-.05.37-.06,1a3,3,0,0,0,1.08,2.27,8.11,8.11,0,0,0,3.56,1.61,27.06,27.06,0,0,0,4.94.37,15.41,15.41,0,0,1,5.05.79,6.42,6.42,0,0,1,3.31,2.61,5.6,5.6,0,0,1,.87,2.69C445,262.23,444.85,262.59,444.81,262.58Z" style="fill:#aa6550"></path><path d="M452.87,237.62a19.69,19.69,0,0,1,.05,3.57c0,2.44-.05,5.36-.09,8.58s0,6.14,0,8.58a21.13,21.13,0,0,1-.08,3.57,16.46,16.46,0,0,1-.43-3.55c-.15-2.2-.25-5.24-.24-8.6s.14-6.41.3-8.6A17.12,17.12,0,0,1,452.87,237.62Z" style="fill:#aa6550"></path><path d="M440.76,266.62a4.45,4.45,0,0,1-1-.4,3.27,3.27,0,0,0-2.75-.13,1.77,1.77,0,0,0-.93,1.49,9.05,9.05,0,0,0,.17,2.31,4,4,0,0,1-.43,2.81,3.42,3.42,0,0,1-2.73,1.42,3.85,3.85,0,0,1-2.81-1.22,4.82,4.82,0,0,1-1.32-2.49,16.06,16.06,0,0,1,.07-4.59,9.36,9.36,0,0,1,.91-2.95c.37-.64.71-.9.73-.87a9,9,0,0,1-.48,1,11.07,11.07,0,0,0-.66,2.9,16.81,16.81,0,0,0,.07,4.4,3.84,3.84,0,0,0,3.47,3.12,2.73,2.73,0,0,0,2.17-1.1,3.39,3.39,0,0,0,.36-2.34,9.38,9.38,0,0,1-.1-2.48,2.32,2.32,0,0,1,1.29-1.86,3.47,3.47,0,0,1,3.09.34C440.48,266.33,440.78,266.58,440.76,266.62Z" style="fill:#aa6550"></path><path d="M430.54,272.36s.13.37-.1,1a3.12,3.12,0,0,1-2.08,1.84,4.15,4.15,0,0,1-3.93-1.21,6.76,6.76,0,0,1-1.75-4.72,8.26,8.26,0,0,1,1.53-4.79,7.94,7.94,0,0,1,3.2-2.56,7.35,7.35,0,0,1,2.68-.63c.65,0,1,.05,1,.1a12.43,12.43,0,0,0-3.46,1,7.72,7.72,0,0,0-2.88,2.49,7.84,7.84,0,0,0-1.36,4.41,6.3,6.3,0,0,0,1.51,4.26,3.67,3.67,0,0,0,3.34,1.18,3,3,0,0,0,1.95-1.46C430.47,272.72,430.48,272.35,430.54,272.36Z" style="fill:#aa6550"></path><path d="M442.88,284.35a2.84,2.84,0,0,1,1.72,0,6.75,6.75,0,0,1,3.73,2.26l-.6.17a18.52,18.52,0,0,1,.39-2.39c1-4.61,3.58-7.62,3.7-7.48s-2,3.2-3,7.64c-.18.8-.31,1.58-.41,2.31l-.1.8-.5-.62a7,7,0,0,0-3.32-2.28C443.51,284.46,442.88,284.44,442.88,284.35Z" style="fill:#aa6550"></path><path d="M442.55,253.83c.17.08-.52,1.37-2.1,2s-3,.32-2.93.14,1.29-.18,2.65-.79S442.39,253.7,442.55,253.83Z" style="fill:#aa6550"></path><path d="M633.93,361.76l52.82-13s-3.36-8.15-12.67-35.78c-8.6-25.53-16-34.28-16-34.28s-27-14.88-42.82-23.49L604.13,243.5v1.18l-10.3,4.53L577.5,256.4l-15.68-5.76-6.57-2.41-2.32,4.57-28,7.7s-20,7.26-32.82,36.61c-15.84,36.17-17,42.47-17,42.47l41.37,24-6.87,80.78,126.54.08-2.5-61.9Z" style="fill:#16C6EF"></path><path d="M626.66,298.06a4.85,4.85,0,0,1,.14-1.3,17,17,0,0,1,1-3.43,21.6,21.6,0,0,1,7.2-9.21,26.15,26.15,0,0,1,14.36-4.87,5.72,5.72,0,0,1,1.3,0c0,.1-1.86.1-4.78.68a26.77,26.77,0,0,0-10.57,4.56,22.36,22.36,0,0,0-7.17,8.94A33.33,33.33,0,0,0,626.66,298.06Z" style="fill:#263238"></path><path d="M686.75,348.77l-.27.09-.82.22-3.13.8L671,352.74,632.82,362l-.23.05-.27.07-.05-.27c-2.55-15.06-4.86-28.67-6.53-38.56-.81-4.91-1.46-8.89-1.92-11.69-.21-1.35-.38-2.42-.5-3.18-.05-.34-.08-.62-.12-.83a1.27,1.27,0,0,1,0-.29,1.08,1.08,0,0,1,.08.28c0,.21.1.48.16.82.15.76.34,1.82.6,3.16.49,2.8,1.2,6.77,2.08,11.66,1.71,9.89,4.07,23.49,6.68,38.54l-.31-.21.22-.06,38.2-9.07,11.59-2.69,3.16-.71.82-.17A.92.92,0,0,1,686.75,348.77Z" style="fill:#263238"></path><path d="M552.93,252.8a3.38,3.38,0,0,1,.19.81c.1.61.23,1.37.39,2.29l0-.07A82.36,82.36,0,0,0,565,267.38q.78.63,1.56,1.23c.5.4,1.06.77,1.48.56s.65-.89,1-1.4l.9-1.56c1.19-2,2.33-3.8,3.32-5.27s1.85-2.62,2.47-3.39c.31-.39.56-.68.74-.87s.27-.29.29-.28a13.23,13.23,0,0,1-.86,1.27c-.57.81-1.38,2-2.33,3.48s-2,3.28-3.22,5.3c-.28.51-.58,1-.88,1.56l-.44.82a1.82,1.82,0,0,1-.73.79,1.29,1.29,0,0,1-1.15,0,4.14,4.14,0,0,1-.86-.57c-.53-.4-1-.81-1.58-1.24A69.69,69.69,0,0,1,553.26,256l0,0v0c-.1-.93-.19-1.7-.26-2.31A3.26,3.26,0,0,1,552.93,252.8Z" style="fill:#263238"></path><path d="M613.5,254.51a2,2,0,0,1-.41.28l-1.24.71-4.55,2.58c-3.84,2.2-9.1,5.3-14.78,8.93-2.44,1.57-4.77,3.1-6.88,4.52l-.22.15-.13-.23c-2.35-4.11-4.28-7.68-5.55-10.25-.64-1.29-1.12-2.32-1.41-3.05a6.3,6.3,0,0,1-.41-1.13,7.59,7.59,0,0,1,.55,1.07c.34.7.87,1.71,1.54,3,1.35,2.53,3.32,6.06,5.7,10.15l-.34-.08c2.1-1.44,4.42-3,6.87-4.56,5.69-3.63,11-6.69,14.88-8.81,1.94-1.06,3.53-1.88,4.64-2.44l1.28-.63A1.68,1.68,0,0,1,613.5,254.51Z" style="fill:#263238"></path><path d="M584.61,312.69a3.44,3.44,0,0,1-.74,0l-2.11-.19-7.73-.83-.18,0v-.19c.19-5.16.44-11.89.71-19.25.36-8.22.69-15.66.93-21.12.14-2.65.26-4.82.34-6.4q.07-1.07.12-1.74a3,3,0,0,1,.08-.61,2.4,2.4,0,0,1,0,.61c0,.46,0,1,0,1.75,0,1.58-.11,3.75-.18,6.4-.2,5.47-.47,12.91-.78,21.13-.32,7.36-.61,14.08-.84,19.25l-.17-.2,7.7,1,2.1.3A3.23,3.23,0,0,1,584.61,312.69Z" style="fill:#263238"></path><path d="M584,280.71s.08,0,.22,0a2.25,2.25,0,0,1,.6.22,3.73,3.73,0,0,1,1.57,1.74,4,4,0,0,1,0,3.48,3.26,3.26,0,0,1-1.54,1.46,4.27,4.27,0,0,1-2.24.36,4.33,4.33,0,0,1-2.11-.85,3.23,3.23,0,0,1-1.18-1.77A4,4,0,0,1,580,282a3.78,3.78,0,0,1,1.92-1.35,2.48,2.48,0,0,1,.63-.08.6.6,0,0,1,.23,0c0,.06-.31.07-.8.26a3.81,3.81,0,0,0-1.68,1.37,3.71,3.71,0,0,0-.6,3,3.51,3.51,0,0,0,6.19.7,3.75,3.75,0,0,0,.1-3.1,3.87,3.87,0,0,0-1.34-1.71C584.23,280.84,583.94,280.77,584,280.71Z" style="fill:#263238"></path><path d="M583.26,297.63a.6.6,0,0,1,.22,0,2.25,2.25,0,0,1,.6.22,3.73,3.73,0,0,1,1.57,1.74,4,4,0,0,1,0,3.48,3.26,3.26,0,0,1-1.54,1.46,4.29,4.29,0,0,1-2.25.36,4.34,4.34,0,0,1-2.1-.85,3.23,3.23,0,0,1-1.18-1.77,4,4,0,0,1,.76-3.39,3.69,3.69,0,0,1,1.92-1.34,2.17,2.17,0,0,1,.63-.09.65.65,0,0,1,.23,0c0,.06-.31.07-.8.26a3.76,3.76,0,0,0-1.68,1.37,3.71,3.71,0,0,0-.6,3,3.51,3.51,0,0,0,6.19.7,3.75,3.75,0,0,0,.1-3.1,3.87,3.87,0,0,0-1.34-1.71C583.54,297.76,583.24,297.69,583.26,297.63Z" style="fill:#263238"></path><g style="opacity:0.30000000000000004"><path d="M577.91,256.67c-.19.38,2.58,11.42,4.61,18.62a4.44,4.44,0,0,0,7.44,1.9l20.89-21.27L585.5,271.33Z"></path></g><g style="opacity:0.30000000000000004"><path d="M554.32,257.09s4.85,16.87,14.21,18.28c0,0,3,.11,3.73-2.33s4.48-16.64,4.48-16.64l-8.66,13A41.4,41.4,0,0,1,554.32,257.09Z"></path></g><path d="M604.12,244.68l.15-66.83A35.74,35.74,0,0,0,567.66,142l-.55,0a37.43,37.43,0,0,0-34.32,37.41c.05,17.07.32,35.59,1.18,44.63,1.83,19.23,21.33,20.63,21.33,20.63s0,1.35,0,3.52l22.25,8.17Z" style="fill:#b78876"></path><path d="M555.25,244.43s12.24,0,24.5-9.21c0,0-4.79,14.35-24.14,14.2Z" style="fill:#aa6550"></path><path d="M539.27,191.13a2.76,2.76,0,0,0,2.88,2.56,2.65,2.65,0,0,0,2.63-2.72,2.76,2.76,0,0,0-2.88-2.55A2.64,2.64,0,0,0,539.27,191.13Z" style="fill:#263238"></path><path d="M537.7,187.16c.37.33,2.33-1.38,5.29-1.62s5.25,1.06,5.54.67c.14-.17-.26-.79-1.26-1.4a7.56,7.56,0,0,0-4.47-1,7.24,7.24,0,0,0-4.17,1.74C537.78,186.34,537.52,187,537.7,187.16Z" style="fill:#263238"></path><path d="M567.41,189.23a2.76,2.76,0,0,0,2.88,2.56,2.65,2.65,0,0,0,2.63-2.72,2.76,2.76,0,0,0-2.88-2.55A2.64,2.64,0,0,0,567.41,189.23Z" style="fill:#263238"></path><path d="M566.82,185.31c.37.33,2.33-1.39,5.28-1.62s5.25,1.06,5.54.67c.15-.17-.25-.79-1.26-1.4a7.52,7.52,0,0,0-4.47-1,7.2,7.2,0,0,0-4.16,1.73C566.9,184.49,566.64,185.16,566.82,185.31Z" style="fill:#263238"></path><path d="M557.9,208.13c0-.17-1.86-.34-4.87-.47-.76,0-1.49-.11-1.66-.61a3.83,3.83,0,0,1,.32-2.28c.56-1.89,1.14-3.87,1.76-5.94,2.42-8.44,4.11-15.36,3.77-15.46s-2.59,6.68-5,15.12q-.87,3.12-1.66,6a4.42,4.42,0,0,0-.15,3,1.89,1.89,0,0,0,1.34,1,4.9,4.9,0,0,0,1.29.07C556,208.44,557.91,208.3,557.9,208.13Z" style="fill:#263238"></path><path d="M566.78,209.45c-.49,0-.23,3.22-2.79,5.73s-6,2.44-6,2.89c0,.2.81.56,2.26.48a8.06,8.06,0,0,0,5-2.23,7,7,0,0,0,2.13-4.79C567.42,210.18,567,209.42,566.78,209.45Z" style="fill:#263238"></path><path d="M565.1,173.78c.36.78,3.28.15,6.78.28s6.39.85,6.79.09c.18-.36-.37-1.08-1.57-1.76a11.18,11.18,0,0,0-5.14-1.34,11.46,11.46,0,0,0-5.2,1C565.53,172.72,564.94,173.41,565.1,173.78Z" style="fill:#263238"></path><path d="M538.08,178.51c.58.63,2.56-.24,5-.47s4.56.08,5-.67c.18-.36-.2-1-1.16-1.56a7.25,7.25,0,0,0-8,.92C538.05,177.49,537.83,178.2,538.08,178.51Z" style="fill:#263238"></path><path d="M581.63,158.48l.11.07a15.18,15.18,0,0,1,6.43,9.32c0,.14.06.27.09.39,1.21,5.43,1.53,11,2.79,16.44s1,9.55,6.45,10.77a7.23,7.23,0,0,0,7.56-3.07,4.68,4.68,0,0,0,.47-2.57c-.07-13.34,2.62-18.52,1.44-32.38a11.73,11.73,0,0,0-5.63-9.11c-3.08-1.84-6.8-3.7-9.9-1.91s-6.77,8.18-9.06,10.95" style="fill:#263238"></path><path d="M598.5,187.09c.32-.16,12.9-5,13.57,8.19s-12.72,11.14-12.76,10.77S598.5,187.09,598.5,187.09Z" style="fill:#b78876"></path><path d="M603.09,200.84s.24.15.63.31a2.28,2.28,0,0,0,1.72-.05c1.37-.58,2.43-2.85,2.38-5.24a7.64,7.64,0,0,0-.81-3.25,2.67,2.67,0,0,0-1.82-1.68,1.18,1.18,0,0,0-1.33.7c-.15.38-.06.64-.13.66s-.29-.2-.21-.75a1.49,1.49,0,0,1,.47-.86,1.77,1.77,0,0,1,1.26-.4,3.23,3.23,0,0,1,2.5,1.93,7.72,7.72,0,0,1,1,3.63c0,2.67-1.19,5.22-3.07,5.87a2.47,2.47,0,0,1-2.12-.24C603.13,201.16,603,200.87,603.09,200.84Z" style="fill:#aa6550"></path><path d="M592.06,148.43c2.8-5.53-6.7-12.35-13.36-13.86s-15,2.36-21.24,5c-4,1.69-7.88,3.91-12.18,4.09-2.89.12-5.72-.7-8.52-1.43a21.35,21.35,0,0,0-8.55-1c-2.86.44-5.69,2.21-6.57,5s1,6.28,3.89,6.44c-3.81-1.7-8.86,1.36-9.11,5.52s4.39,7.82,8.37,6.59c-2-1.26-4.66,1.32-4.23,3.64s2.68,3.84,4.91,4.6c5.68,2,12,.66,17.54-1.72s10.54-5.8,16-8.31,14.58-7,20.4-5.46c4.28,1.12,7.59,5.89,9.85,4.59a8.07,8.07,0,0,0,3.68-6.26,23.46,23.46,0,0,0-.88-7.47" style="fill:#263238"></path><path d="M523.91,152.47c.1-.07.76.92,2.3,2.34a18.2,18.2,0,0,0,7.7,4.1,16.72,16.72,0,0,0,12.5-1.54c4.31-2.38,7.81-6.71,11.9-10.85s9-7.43,14.2-8.33,10.07.58,13,3.32a11.47,11.47,0,0,1,3.68,8.25,8.94,8.94,0,0,1-.36,2.47c-.2.54-.32.8-.37.79a20.25,20.25,0,0,0,.23-3.24,11.38,11.38,0,0,0-3.8-7.59c-2.73-2.43-7.32-3.74-12.11-2.82s-9.51,4-13.5,8.07-7.62,8.5-12.24,11a17.46,17.46,0,0,1-13.33,1.38,17.67,17.67,0,0,1-7.81-4.62,12.66,12.66,0,0,1-1.54-1.94C524,152.76,523.87,152.5,523.91,152.47Z" style="fill:#455a64"></path><path d="M601.8,186.24s-.6-.31-1.18-1.31a8.86,8.86,0,0,1-1-4.72c-.06-4.26,3.31-9.12,3.3-15a13.2,13.2,0,0,0-2.1-7.73,10.1,10.1,0,0,0-5.24-3.82,8.56,8.56,0,0,0-4.44-.23c-1.05.25-1.59.54-1.65.44s.43-.5,1.5-.93a8.22,8.22,0,0,1,4.84-.17,10.65,10.65,0,0,1,6,4,14,14,0,0,1,2.43,8.45,24,24,0,0,1-1.85,8.5,25.06,25.06,0,0,0-1.84,6.55A10.21,10.21,0,0,0,601.8,186.24Z" style="fill:#455a64"></path><path d="M682.13,350l18.65,44.59a28.34,28.34,0,0,1-1.64,25.17h0a28.34,28.34,0,0,1-28.22,13.85l-65.44-6.35,1.21-25.86,48.39-7.62-13.42-33.93Z" style="fill:#b78876"></path><path d="M607.59,401.61s-10.56-2.33-15.09-3.26c-1.47-.31-2.76-1.13-4.21-1.5-7.08-1.84-15.75-6.41-17.72-8.33-3.42-3.35-5.94,1.81-2.53,6a24.14,24.14,0,0,0,6,5.69L559.59,404a3.1,3.1,0,0,0-1.82,1.33L546.61,423a3.51,3.51,0,0,0,.41,4.65,1.75,1.75,0,0,0,2.37.18l-1.44,2.4c-2.37,4,3.45,7.86,6,4a.71.71,0,0,0,.1-.14l2.79,3.78s1.33,3.69,5.6,1.32c3.54-2,15.42-10.72,15.42-10.72s33.55.76,35.23-4.19Z" style="fill:#b78876"></path><path d="M554,434.23c.17.08,1.12-1.6,2.81-4.21s4.24-6.15,6.72-10.17c1.32-1.9,2.75-3.79,4-5.27a3.67,3.67,0,0,1,2.3-1.06l2.53-.37c3.09-.47,5-.84,5-1s-2-.1-5.08.15l-2.55.22a4.68,4.68,0,0,0-3,1.26,57.63,57.63,0,0,0-4.21,5.39c-2.53,4.1-4.91,7.64-6.45,10.41S553.87,434.17,554,434.23Z" style="fill:#aa6550"></path><path d="M549.39,427.79c.4.28,4.17-6.25,9.57-13.64,1.35-1.83,2.62-3.73,4.19-4.49a36.46,36.46,0,0,1,4.92-1.71,20.54,20.54,0,0,1,3.44-.67c.82-.06,1.27,0,1.3-.07s-.42-.32-1.3-.4a13.44,13.44,0,0,0-3.64.3,28.86,28.86,0,0,0-5.18,1.52c-2.1,1-3.33,3-4.71,4.79a93.59,93.59,0,0,0-6.41,10C550.08,426,549.27,427.74,549.39,427.79Z" style="fill:#aa6550"></path><path d="M580.45,420.3c0-.16-1.73-.12-4.47.09l-2.25.19a7.11,7.11,0,0,0-2.69.57,6.8,6.8,0,0,0-2.31,2l-2,2.31c-5.54,6.34-9.82,11.65-9.56,11.86s4.94-4.73,10.46-11l2-2.32a6,6,0,0,1,1.94-1.77,6.54,6.54,0,0,1,2.31-.57l2.23-.34C578.8,420.82,580.47,420.47,580.45,420.3Z" style="fill:#aa6550"></path><path d="M588.83,399.63c0-.5-4.64-.73-10.26-.12s-10.13,1.8-10,2.17,4.55-.44,10.16-1l7.16-.71A14.32,14.32,0,0,0,588.83,399.63Z" style="fill:#aa6550"></path></g><g id="freepik--device-2--inject-16"><path d="M395.67,444.47a21.91,21.91,0,0,1,17.48-9.87c11.93-.41,17.9,9.87,17.9,9.87Z" style="fill:#455a64"></path><path d="M418.54,444.17c-.08,0-.1-.7-.35-1.78a11.43,11.43,0,0,0-4.73-7,14.25,14.25,0,0,1-1.52-1,4,4,0,0,1,1.72.67,10.17,10.17,0,0,1,4.9,7.21A4,4,0,0,1,418.54,444.17Z" style="fill:#263238"></path><path d="M623.05,444.47v-.08a4.58,4.58,0,0,0-4.58-4.5H516.85a4.58,4.58,0,0,0-4.58,4.58H623.05Z" style="fill:#455a64"></path><path d="M389.26,280.69H566.59a5.91,5.91,0,0,1,5.91,5.91V399.26a5.91,5.91,0,0,1-5.91,5.91H389.26a2.09,2.09,0,0,1-2.09-2.09V282.78A2.09,2.09,0,0,1,389.26,280.69Z" transform="translate(959.67 685.85) rotate(180)" style="fill:#455a64"></path><rect x="457.24" y="390.74" width="34.71" height="53.73" transform="translate(949.19 835.21) rotate(180)" style="fill:#455a64"></rect><rect x="563.35" y="280.69" width="9.14" height="124.47" rx="2.09" transform="translate(1135.85 685.85) rotate(180)" style="fill:#263238"></rect><path d="M457.1,381.07c.14,0,.29,14.19.33,31.7s0,31.7-.19,31.7-.29-14.19-.33-31.7S457,381.07,457.1,381.07Z" style="fill:#263238"></path><path d="M492.31,380.25c.14,0,.18,14.22.08,31.77s-.3,31.77-.44,31.77-.18-14.23-.08-31.78S492.16,380.25,492.31,380.25Z" style="fill:#263238"></path><path d="M551.25,394.33a1.12,1.12,0,0,1,0-.22c0-.17,0-.38,0-.63,0-.58,0-1.37,0-2.38,0-2.1,0-5.08-.09-8.83l.17.17-39.33.09.26-.26h0v6.14c0,2,0,4,0,5.9l-.25-.25,28.05.11,8.25.07,2.23,0H551l.21,0a6.5,6.5,0,0,1-.74,0l-2.17,0-8.2.08-28.22.11h-.26V382.29h0l.26-.26,39.33.1h.16v.16c0,3.79-.07,6.81-.09,8.93,0,1,0,1.77,0,2.34A7.51,7.51,0,0,1,551.25,394.33Z" style="fill:#263238"></path><path d="M487.56,374.4c0,.14-6.44.26-14.38.26s-14.39-.12-14.39-.26,6.44-.26,14.39-.26S487.56,374.26,487.56,374.4Z" style="fill:#263238"></path></g><g id="freepik--Desk--inject-16"><path d="M718.3,444.47c0,.14-153.71.26-343.28.26s-343.32-.12-343.32-.26,153.68-.26,343.32-.26S718.3,444.33,718.3,444.47Z" style="fill:#263238"></path></g><g id="freepik--Plant--inject-16"><path d="M345.71,419.06c-7.17-4.16-11-13.83-11.3-21.75s3-16.18,9.51-20.72c6.84-4.78,16.58-4.7,23.61-.2a24.59,24.59,0,0,1,10.82,21.34A28.28,28.28,0,0,1,366.77,419" style="fill:#16C6EF"></path><path d="M357.16,419.82A9,9,0,0,1,357,418c0-1.29-.09-2.95-.14-4.94-.11-4.17-.27-9.92-.55-16.28s-.63-12.11-.89-16.27c-.11-2-.21-3.64-.29-4.93a10.55,10.55,0,0,1,0-1.82,9,9,0,0,1,.29,1.8c.14,1.15.32,2.83.51,4.91.38,4.16.8,9.91,1.08,16.28s.37,12.13.35,16.31c0,2.09,0,3.78-.07,4.94A9,9,0,0,1,357.16,419.82Z" style="fill:#fff"></path><path d="M336.54,395.51c0,.19-1.16.25-2.56.13s-2.52-.36-2.5-.54,1.16-.24,2.56-.13S336.55,395.33,336.54,395.51Z" style="fill:#263238"></path><path d="M336.93,388.41c-.08.17-1.06-.1-2.21-.61s-2-1.05-1.93-1.22,1.06.1,2.21.61S337,388.24,336.93,388.41Z" style="fill:#263238"></path><path d="M340.58,383.14c-.09.15-1.2-.37-2.36-1.33s-1.87-1.95-1.74-2.07,1,.63,2.17,1.55S340.68,383,340.58,383.14Z" style="fill:#263238"></path><path d="M344.26,378.16c-.17.08-.7-.75-1.19-1.85s-.74-2.06-.57-2.13.7.75,1.19,1.85S344.43,378.09,344.26,378.16Z" style="fill:#263238"></path><path d="M350,374.63c-.17.08-.74-.81-1.12-2s-.41-2.28-.23-2.31.5.93.87,2.11S350.2,374.55,350,374.63Z" style="fill:#263238"></path><path d="M359.65,370.65c.18.06.07.82-.24,1.69s-.69,1.52-.87,1.46-.07-.82.24-1.69S359.48,370.59,359.65,370.65Z" style="fill:#263238"></path><path d="M366.79,373.71c.13.14-.33.77-1,1.41s-1.35,1.05-1.48.91.33-.77,1-1.4S366.67,373.58,366.79,373.71Z" style="fill:#263238"></path><path d="M373.08,377.77c.1.16-.46.72-1.25,1.25s-1.52.85-1.62.7.45-.72,1.24-1.25S373,377.62,373.08,377.77Z" style="fill:#263238"></path><path d="M377.54,383.82c.07.18-.81.71-2,1.21s-2.15.76-2.23.58.81-.71,2-1.2S377.47,383.65,377.54,383.82Z" style="fill:#263238"></path><path d="M379.3,390.42c0,.19-.88.45-2,.59s-2.06.1-2.09-.08.88-.45,2-.59S379.27,390.24,379.3,390.42Z" style="fill:#263238"></path><path d="M380.21,398.55c-.07.17-1-.08-2.13-.56s-1.94-1-1.86-1.18,1,.08,2.13.56S380.28,398.38,380.21,398.55Z" style="fill:#263238"></path><path d="M379.41,405.52c-.06.17-1.27-.12-2.53-.95s-2-1.81-1.88-1.93,1.05.6,2.25,1.37S379.47,405.34,379.41,405.52Z" style="fill:#263238"></path><path d="M375.78,411.87c-.11.14-1.07-.42-2-1.42s-1.41-2-1.26-2.09.87.69,1.76,1.63S375.89,411.72,375.78,411.87Z" style="fill:#263238"></path><path d="M341.31,412.61c.08.17-.92.86-2.25,1.55s-2.48,1.12-2.57,1,.93-.86,2.26-1.55S341.22,412.45,341.31,412.61Z" style="fill:#263238"></path><path d="M338.16,406.87c.08.17-.73.7-1.8,1.19s-2,.74-2.09.58.73-.71,1.81-1.19S338.08,406.7,338.16,406.87Z" style="fill:#263238"></path><path d="M335.85,401.79c0,.18-1,.47-2.23.65s-2.29.18-2.31,0,1-.48,2.22-.65S335.82,401.6,335.85,401.79Z" style="fill:#263238"></path><path d="M343.44,399c.05.17-.92.62-2.21.77s-2.35-.08-2.33-.26,1-.27,2.25-.41S343.38,398.8,343.44,399Z" style="fill:#263238"></path><path d="M349.74,392.71c.06.17-.71.56-1.76.67s-1.87-.13-1.85-.31.82-.27,1.79-.36S349.69,392.53,349.74,392.71Z" style="fill:#263238"></path><path d="M351,387.68c-.06.18-.9.05-1.87-.29s-1.71-.75-1.65-.92.9-.05,1.87.29S351,387.51,351,387.68Z" style="fill:#263238"></path><path d="M353.26,382.6c-.13.13-.7-.25-1.11-1s-.45-1.4-.28-1.45.49.48.86,1.11S353.4,382.47,353.26,382.6Z" style="fill:#263238"></path><path d="M350.47,403.41c0,.18-.68.51-1.61.74a5.91,5.91,0,0,1-1.36.2l-.14-.39c.25,0,.4,0,.43,0s-.06.19-.26.34l-.13-.39a5.8,5.8,0,0,1,1.3-.45C349.63,403.27,350.43,403.23,350.47,403.41Z" style="fill:#263238"></path><path d="M351.77,412.32c.07.18-.85.7-2.06,1.17s-2.24.72-2.31.55.86-.7,2.06-1.17S351.7,412.15,351.77,412.32Z" style="fill:#263238"></path><path d="M344.65,408.36c.06.18-.56.55-1.38.83s-1.53.36-1.59.18.56-.54,1.38-.82S344.59,408.19,344.65,408.36Z" style="fill:#263238"></path><path d="M345.19,390.23c0,.17-1.11.07-2.35-.37s-2.14-1-2.06-1.2,1.08.14,2.28.56S345.24,390,345.19,390.23Z" style="fill:#263238"></path><path d="M362.43,388.25c.1.16-.5.74-1.35,1.3s-1.61.88-1.71.73.5-.74,1.34-1.3S362.33,388.1,362.43,388.25Z" style="fill:#263238"></path><path d="M363.37,397.2c0,.18-.6.47-1.42.64s-1.51.16-1.55,0,.6-.47,1.42-.64S363.33,397,363.37,397.2Z" style="fill:#263238"></path><path d="M364.46,407.26c-.08.17-1-.08-2-.57s-1.84-1-1.76-1.18,1,.08,2,.57S364.54,407.1,364.46,407.26Z" style="fill:#263238"></path><path d="M362.15,417.06c-.14.12-.73-.37-1.32-1.08s-.95-1.39-.81-1.51.74.37,1.33,1.08S362.3,416.94,362.15,417.06Z" style="fill:#263238"></path><path d="M361.68,381.66c.12.15-.28.64-.95,1s-1.3.35-1.35.18.44-.48,1.05-.78S361.57,381.51,361.68,381.66Z" style="fill:#263238"></path><path d="M370.13,390.69c.06.17-.72.6-1.79.75s-1.94-.05-1.93-.23.84-.3,1.84-.44S370.07,390.51,370.13,390.69Z" style="fill:#263238"></path><path d="M368.45,382.59c.08.16-.7.71-1.8,1.07s-2.06.35-2.08.17.83-.48,1.87-.82S368.36,382.42,368.45,382.59Z" style="fill:#263238"></path><path d="M372,403.24c0,.18-1.33.3-2.93,0s-2.8-.86-2.74-1,1.32.1,2.86.37S372,403.05,372,403.24Z" style="fill:#263238"></path><path d="M368.83,415c-.11.14-1.08-.43-2.06-1.41s-1.55-2-1.4-2.07.93.65,1.88,1.59S369,414.86,368.83,415Z" style="fill:#263238"></path><path d="M355,373a30.07,30.07,0,0,0-5.89,4.66,28.79,28.79,0,0,0-7.34,16.22,36.38,36.38,0,0,0,.44,9.94,77.82,77.82,0,0,0,1.86,8c.65,2.25,1.24,4,1.64,5.29a13.56,13.56,0,0,1,.57,2,10.29,10.29,0,0,1-.82-1.87c-.47-1.22-1.13-3-1.84-5.24a69.38,69.38,0,0,1-2-8,35.63,35.63,0,0,1-.5-10.13,28.24,28.24,0,0,1,7.67-16.47,21.09,21.09,0,0,1,4.39-3.44,14.06,14.06,0,0,1,1.35-.7A1.75,1.75,0,0,1,355,373Z" style="fill:#fff"></path><path d="M364.2,419.49a74.2,74.2,0,0,0,3-7.22A41,41,0,0,0,369,393.71a34.92,34.92,0,0,0-2.87-9.9,23.29,23.29,0,0,0-4.88-6.8,17.88,17.88,0,0,0-4.78-3c-1.24-.52-2-.64-2-.7a1.64,1.64,0,0,1,.55,0,8.87,8.87,0,0,1,1.52.41,16.48,16.48,0,0,1,5,2.91,23,23,0,0,1,5.12,6.88,34.22,34.22,0,0,1,3,10.08,39.39,39.39,0,0,1-2,18.81c-.38,1.16-.87,2.15-1.23,3.05s-.79,1.62-1.12,2.22A13.34,13.34,0,0,1,364.2,419.49Z" style="fill:#fff"></path><polygon points="338.16 417.9 375.21 417.9 375.44 425.32 338.16 425.32 338.16 417.9" style="fill:#263238"></polygon><polygon points="341.31 421.61 343.44 444.25 370.53 444.25 372.7 421.86 341.31 421.61" style="fill:#263238"></polygon><path d="M375.44,425.41c0,.18-8.34.33-18.63.33s-18.64-.15-18.64-.33,8.34-.34,18.64-.34S375.44,425.22,375.44,425.41Z" style="fill:#455a64"></path><path d="M371.68,432.3a5.79,5.79,0,0,1-.8,1.42,20.28,20.28,0,0,1-2.87,3.39l-.17.16-.17-.17a53.56,53.56,0,0,0-7.26-6.36l.41,0-3.22,2.83-3.81,3.31-.21.19-.21-.18c-2.31-1.94-4.4-3.71-6.19-5.2l.36,0c-1.27,1.56-2.35,2.87-3.2,3.9a9.21,9.21,0,0,1-1.25,1.38,9.27,9.27,0,0,1,1-1.55l3-4,.15-.21.21.17,6.28,5.09h-.43l3.8-3.33,3.23-2.81.19-.17.22.15a46.88,46.88,0,0,1,7.22,6.56h-.34A38.87,38.87,0,0,0,371.68,432.3Z" style="fill:#455a64"></path></g><g id="freepik--Screens--inject-16"><path d="M489.61,275.37a.94.94,0,0,1,0-.27c0-.21,0-.47,0-.8,0-.75,0-1.78-.05-3.09,0-2.73-.05-6.6-.09-11.37,0-9.64,0-22.88-.07-37.51,0-6.93,0-13.55,0-19.58l.24.24-24.1-.09-6.9-.07-1.84,0a2.83,2.83,0,0,1-.63,0,3.91,3.91,0,0,1,.63,0l1.84,0,6.9-.07,24.1-.09h.24v.24c0,6,0,12.65,0,19.58,0,14.63-.06,27.87-.08,37.51,0,4.77-.06,8.64-.08,11.37,0,1.31,0,2.34,0,3.09,0,.33,0,.59,0,.8A.8.8,0,0,1,489.61,275.37Z" style="fill:#263238"></path><path d="M304.6,215.87c.15,0,.26,26.85.26,60s-.11,60-.26,60-.26-26.84-.26-60S304.46,215.87,304.6,215.87Z" style="fill:#263238"></path><path d="M308,335.79a3.38,3.38,0,1,1-3.38-3.37A3.37,3.37,0,0,1,308,335.79Z" style="fill:#263238"></path><path d="M493,275.37a3.37,3.37,0,1,1-3.37-3.37A3.37,3.37,0,0,1,493,275.37Z" style="fill:#263238"></path><rect x="262.4" y="95.5" width="208.34" height="121.4" style="fill:#263238"></rect><path d="M278.7,210.79c-.11,0-.2-24.83-.2-55.44s.09-55.45.2-55.45.2,24.82.2,55.45S278.81,210.79,278.7,210.79Z" style="fill:#e0e0e0"></path><path d="M278.7,210.91c-.06,0-.09,0-.12-.16h0c-.05-.33-.06-1.33-.08-4.31,0-2.79-.05-6.79-.07-11.88,0-10.47-.06-24.39-.06-39.2s0-28.74.06-39.21c0-5.09,0-9.09.07-11.88,0-3,0-4,.08-4.31h0c0-.16.06-.16.12-.16s.09,0,.11.16h0c.05.33.06,1.33.08,4.31,0,2.79.05,6.79.06,11.88,0,10.48.06,24.4.06,39.21s0,28.72-.06,39.2c0,5.09,0,9.09-.06,11.88,0,3,0,4-.08,4.31h0C278.79,210.91,278.75,210.91,278.7,210.91Zm0-98.8c-.05,10.21-.08,25.86-.08,43.24s0,33,.08,43.23c0-10.2.07-25.86.07-43.23S278.74,122.32,278.7,112.11Z" style="fill:#e0e0e0"></path><path d="M274.41,104.58a29.86,29.86,0,0,1-6.9,0,29.86,29.86,0,0,1,6.9,0Z" style="fill:#e0e0e0"></path><path d="M271,104.9c-3.57,0-3.57-.21-3.57-.32s0-.32,3.57-.32,3.58.21,3.58.32S274.54,104.9,271,104.9Zm-2.69-.32c.57,0,1.47.07,2.69.07s2.13,0,2.69-.07c-.56,0-1.47-.07-2.69-.07S268.84,104.54,268.27,104.58Z" style="fill:#e0e0e0"></path><path d="M274.41,111.89a29.86,29.86,0,0,1-6.9,0,29.86,29.86,0,0,1,6.9,0Z" style="fill:#e0e0e0"></path><path d="M271,112.21c-3.57,0-3.57-.21-3.57-.32s0-.33,3.57-.33,3.58.21,3.58.33S274.54,112.21,271,112.21Zm-2.69-.32c.57,0,1.47.07,2.69.07s2.13,0,2.69-.07c-.56,0-1.47-.08-2.69-.08S268.84,111.85,268.27,111.89Z" style="fill:#e0e0e0"></path><path d="M274.41,119.19a29.86,29.86,0,0,1-6.9,0,29.86,29.86,0,0,1,6.9,0Z" style="fill:#e0e0e0"></path><path d="M271,119.52c-3.57,0-3.57-.21-3.57-.33s0-.32,3.57-.32,3.58.21,3.58.32S274.54,119.52,271,119.52Zm-2.68-.33c.56,0,1.46.08,2.68.08s2.13,0,2.69-.08c-.56,0-1.47-.07-2.69-.07S268.84,119.15,268.28,119.19Z" style="fill:#e0e0e0"></path><path d="M274.41,126.5a29.86,29.86,0,0,1-6.9,0,29.86,29.86,0,0,1,6.9,0Z" style="fill:#e0e0e0"></path><path d="M271,126.82c-3.57,0-3.57-.21-3.57-.32s0-.33,3.57-.33,3.58.22,3.58.33S274.54,126.82,271,126.82Zm-2.68-.32c.57,0,1.47.07,2.68.07s2.12,0,2.69-.07c-.58,0-1.5-.08-2.69-.08S268.86,126.46,268.28,126.5Z" style="fill:#e0e0e0"></path><path d="M274.41,133.81a29.86,29.86,0,0,1-6.9,0,29.86,29.86,0,0,1,6.9,0Z" style="fill:#e0e0e0"></path><path d="M271,134.13c-3.57,0-3.57-.21-3.57-.32s0-.33,3.57-.33,3.58.21,3.58.33S274.54,134.13,271,134.13Zm-2.68-.32c.56,0,1.46.07,2.68.07s2.13,0,2.69-.07c-.56,0-1.47-.08-2.69-.08S268.84,133.77,268.28,133.81Z" style="fill:#e0e0e0"></path><path d="M274.41,141.11a29.86,29.86,0,0,1-6.9,0,29.86,29.86,0,0,1,6.9,0Z" style="fill:#e0e0e0"></path><path d="M271,141.44c-3.57,0-3.57-.21-3.57-.33s0-.32,3.57-.32,3.58.21,3.58.32S274.54,141.44,271,141.44Zm-2.68-.33c.56,0,1.46.08,2.68.08s2.13,0,2.69-.08c-.56,0-1.47-.07-2.69-.07S268.84,141.07,268.28,141.11Z" style="fill:#e0e0e0"></path><path d="M274.41,148.42a29.86,29.86,0,0,1-6.9,0,29.86,29.86,0,0,1,6.9,0Z" style="fill:#e0e0e0"></path><path d="M271,148.74c-3.57,0-3.57-.21-3.57-.32s0-.33,3.57-.33,3.58.22,3.58.33S274.54,148.74,271,148.74Zm-2.69-.32c.57,0,1.47.07,2.69.07s2.13,0,2.69-.07c-.56,0-1.47-.08-2.69-.08S268.84,148.38,268.27,148.42Z" style="fill:#e0e0e0"></path><path d="M274.41,155.73a31.42,31.42,0,0,1-6.9,0,29.86,29.86,0,0,1,6.9,0Z" style="fill:#e0e0e0"></path><path d="M271,156.05c-3.57,0-3.57-.21-3.57-.32s0-.33,3.57-.33,3.58.21,3.58.33S274.54,156.05,271,156.05Zm-2.68-.32c.56,0,1.46.07,2.68.07s2.13,0,2.69-.07c-.56,0-1.47-.08-2.69-.08S268.84,155.68,268.28,155.73Z" style="fill:#e0e0e0"></path><path d="M274.41,163a29.86,29.86,0,0,1-6.9,0,29.86,29.86,0,0,1,6.9,0Z" style="fill:#e0e0e0"></path><path d="M271,163.36c-3.57,0-3.57-.22-3.57-.33s0-.32,3.57-.32,3.58.21,3.58.32S274.54,163.36,271,163.36Zm-2.68-.33c.57,0,1.47.08,2.68.08s2.12,0,2.69-.08c-.58,0-1.5-.07-2.69-.07S268.86,163,268.28,163Z" style="fill:#e0e0e0"></path><path d="M274.41,170.34a29.86,29.86,0,0,1-6.9,0,29.86,29.86,0,0,1,6.9,0Z" style="fill:#e0e0e0"></path><path d="M271,170.66c-3.57,0-3.57-.21-3.57-.32s0-.33,3.57-.33,3.58.21,3.58.33S274.54,170.66,271,170.66Zm-2.68-.32c.58,0,1.5.07,2.68.07s2.11,0,2.69-.07c-.57,0-1.47-.08-2.69-.08S268.85,170.3,268.28,170.34Z" style="fill:#e0e0e0"></path><path d="M274.41,177.64a29.86,29.86,0,0,1-6.9,0,31.42,31.42,0,0,1,6.9,0Z" style="fill:#e0e0e0"></path><path d="M271,178c-3.57,0-3.57-.21-3.57-.33s0-.32,3.57-.32,3.58.21,3.58.32S274.54,178,271,178Zm-2.68-.33c.56.05,1.46.08,2.68.08s2.13,0,2.69-.08c-.56,0-1.47-.07-2.69-.07S268.84,177.6,268.28,177.64Z" style="fill:#e0e0e0"></path><path d="M274.41,185a29.86,29.86,0,0,1-6.9,0,29.86,29.86,0,0,1,6.9,0Z" style="fill:#e0e0e0"></path><path d="M271,185.28c-3.57,0-3.57-.22-3.57-.33s0-.32,3.57-.32,3.58.21,3.58.32S274.54,185.28,271,185.28Zm-2.68-.33c.57,0,1.47.08,2.68.08s2.12,0,2.69-.08c-.58,0-1.5-.07-2.69-.07S268.86,184.91,268.28,185Z" style="fill:#e0e0e0"></path><path d="M274.41,192.26a29.86,29.86,0,0,1-6.9,0,29.86,29.86,0,0,1,6.9,0Z" style="fill:#e0e0e0"></path><path d="M271,192.58c-3.57,0-3.57-.21-3.57-.32s0-.33,3.57-.33,3.58.21,3.58.33S274.54,192.58,271,192.58Zm-2.69-.32c.57,0,1.47.07,2.69.07s2.13,0,2.69-.07c-.56,0-1.47-.08-2.69-.08S268.84,192.22,268.27,192.26Z" style="fill:#e0e0e0"></path><path d="M274.41,199.56a29.86,29.86,0,0,1-6.9,0,29.86,29.86,0,0,1,6.9,0Z" style="fill:#e0e0e0"></path><path d="M271,199.89c-3.57,0-3.57-.21-3.57-.33s0-.32,3.57-.32,3.58.21,3.58.32S274.54,199.89,271,199.89Zm-2.68-.33c.56,0,1.46.08,2.68.08s2.13,0,2.69-.08c-.56,0-1.47-.07-2.69-.07S268.84,199.52,268.28,199.56Z" style="fill:#e0e0e0"></path><path d="M274.41,206.87a29.86,29.86,0,0,1-6.9,0,29.86,29.86,0,0,1,6.9,0Z" style="fill:#e0e0e0"></path><path d="M271,207.2c-3.57,0-3.57-.22-3.57-.33s0-.32,3.57-.32,3.58.21,3.58.32S274.54,207.2,271,207.2Zm-2.69-.33c.57,0,1.47.08,2.69.08s2.13,0,2.69-.08c-.56,0-1.47-.07-2.69-.07S268.84,206.83,268.27,206.87Z" style="fill:#e0e0e0"></path><path d="M302.07,104.15c0,.11-4,.2-8.95.2s-9-.09-9-.2,4-.2,9-.2S302.07,104,302.07,104.15Z" style="fill:#16C6EF"></path><path d="M293.12,104.47c-2.39,0-4.64,0-6.34,0-2.74-.07-2.74-.11-2.74-.27s0-.21,2.74-.27c1.69,0,3.94-.06,6.34-.06s4.64,0,6.33.06c2.74.06,2.74.11,2.74.27s0,.2-2.74.27C297.76,104.45,295.51,104.47,293.12,104.47Zm-7-.32c1.55,0,4,.07,7,.07s5.43,0,7-.07c-1.56,0-4-.08-7-.08S287.68,104.11,286.13,104.15Z" style="fill:#16C6EF"></path><path d="M302.07,206.87c0,.11-4,.2-8.95.2s-9-.09-9-.2,4-.2,9-.2S302.07,206.76,302.07,206.87Z" style="fill:#16C6EF"></path><path d="M293.12,207.2c-2.4,0-4.65,0-6.34-.06-2.74-.06-2.74-.11-2.74-.27s0-.2,2.74-.27c1.69,0,3.94,0,6.34,0s4.64,0,6.33,0c2.74.07,2.74.11,2.74.27s0,.21-2.74.27C297.76,207.17,295.51,207.2,293.12,207.2Zm-7-.33c1.55,0,4,.08,7,.08s5.43,0,7-.08c-1.56,0-4-.07-7-.07S287.68,206.83,286.13,206.87Z" style="fill:#16C6EF"></path><path d="M327,119.19c0,.11-7.5.2-16.75.2s-16.76-.09-16.76-.2,7.5-.2,16.76-.2S327,119.08,327,119.19Z" style="fill:#16C6EF"></path><path d="M310.26,119.52c-4.48,0-8.69,0-11.85-.06-5-.06-5-.1-5-.27s0-.2,5-.26c3.16,0,7.37-.06,11.85-.06s8.68,0,11.84.06c5,.06,5,.09,5,.26s0,.21-5,.27C318.94,119.5,314.73,119.52,310.26,119.52Zm-13.06-.33c2.92,0,7.43.08,13.06.08s10.13,0,13.05-.08c-2.92,0-7.43-.07-13.05-.07S300.12,119.15,297.2,119.19Z" style="fill:#16C6EF"></path><path d="M365.75,119.19c0,.11-7.5.2-16.75.2s-16.76-.09-16.76-.2,7.5-.2,16.76-.2S365.75,119.08,365.75,119.19Z" style="fill:#e0e0e0"></path><path d="M349,119.52c-4.48,0-8.69,0-11.85-.06-5-.06-5-.1-5-.27s0-.2,5-.26c3.16,0,7.37-.06,11.85-.06s8.68,0,11.84.06c5,.06,5,.09,5,.26s0,.21-5,.27C357.68,119.5,353.47,119.52,349,119.52Zm-13.06-.33c2.92,0,7.43.08,13.06.08s10.13,0,13.05-.08c-2.92,0-7.43-.07-13.05-.07S338.86,119.15,335.94,119.19Z" style="fill:#e0e0e0"></path><path d="M350.94,126.5c0,.11-11.05.2-24.69.2s-24.68-.09-24.68-.2,11.05-.2,24.68-.2S350.94,126.39,350.94,126.5Z" style="fill:#e0e0e0"></path><path d="M326.25,126.82c-6.59,0-12.79,0-17.45,0-7.36-.06-7.36-.1-7.36-.27s0-.21,7.36-.27c4.66,0,10.86-.06,17.45-.06s12.79,0,17.46.06c7.36.06,7.36.09,7.36.27s0,.21-7.36.27C339.05,126.8,332.85,126.82,326.25,126.82ZM307,126.5c4.29,0,10.94.07,19.24.07s14.95,0,19.24-.07c-4.29,0-10.93-.08-19.24-.08S311.3,126.46,307,126.5Z" style="fill:#e0e0e0"></path><path d="M350.94,133.81c0,.11-11.05.2-24.69.2s-24.68-.09-24.68-.2,11.05-.2,24.68-.2S350.94,133.7,350.94,133.81Z" style="fill:#e0e0e0"></path><path d="M326.25,134.13c-6.59,0-12.79,0-17.45-.06-7.36-.06-7.36-.09-7.36-.26s0-.21,7.36-.27c4.66,0,10.86-.06,17.45-.06s12.8,0,17.46.06c7.36.06,7.36.09,7.36.27s0,.2-7.36.26C339.05,134.11,332.85,134.13,326.25,134.13ZM307,133.81c4.29,0,10.93.07,19.22.07s14.94,0,19.23-.07c-4.29-.05-10.93-.08-19.23-.08S311.32,133.76,307,133.81Z" style="fill:#e0e0e0"></path><path d="M384.93,155.73c0,.11-11.06.19-24.69.19s-24.69-.08-24.69-.19,11.05-.2,24.69-.2S384.93,155.62,384.93,155.73Z" style="fill:#e0e0e0"></path><path d="M360.24,156.05c-6.59,0-12.79,0-17.46-.06-7.35-.06-7.35-.09-7.35-.26s0-.21,7.35-.27c4.66,0,10.87-.06,17.46-.06s12.8,0,17.46.06c7.35.06,7.35.09,7.35.27s0,.2-7.35.26C373,156,366.83,156.05,360.24,156.05ZM341,155.73c4.3,0,10.94.07,19.23.07s14.94,0,19.23-.07c-4.29,0-10.94-.08-19.23-.08S345.31,155.68,341,155.73Z" style="fill:#e0e0e0"></path><path d="M370.26,141.11c0,.11-11.05.2-24.68.2s-24.69-.09-24.69-.2,11.05-.2,24.69-.2S370.26,141,370.26,141.11Z" style="fill:#e0e0e0"></path><path d="M345.58,141.44c-6.6,0-12.8,0-17.46-.06-7.36-.06-7.36-.09-7.36-.27s0-.2,7.36-.26c4.66,0,10.86-.06,17.46-.06s12.79,0,17.45.06c7.36.06,7.36.09,7.36.26s0,.21-7.36.27C358.37,141.42,352.17,141.44,345.58,141.44Zm-19.23-.33c4.29,0,10.93.08,19.23.08s14.93,0,19.22-.08c-4.29,0-10.93-.07-19.22-.07S330.64,141.07,326.35,141.11Z" style="fill:#e0e0e0"></path><path d="M430.6,141.11c0,.11-11.05.2-24.69.2s-24.69-.09-24.69-.2,11.06-.2,24.69-.2S430.6,141,430.6,141.11Z" style="fill:#e0e0e0"></path><path d="M405.91,141.44c-6.59,0-12.79,0-17.46-.06-7.35-.06-7.35-.09-7.35-.27s0-.2,7.35-.26c4.67,0,10.87-.06,17.46-.06s12.79,0,17.46.06c7.35.06,7.35.09,7.35.26s0,.21-7.35.27C418.71,141.42,412.51,141.44,405.91,141.44Zm-19.22-.33c4.29,0,10.93.08,19.22.08s14.94,0,19.23-.08c-4.29,0-10.94-.07-19.23-.07S391,141.07,386.69,141.11Z" style="fill:#e0e0e0"></path><path d="M409.62,126.5c0,.11-11.06.2-24.69.2s-24.69-.09-24.69-.2,11.05-.2,24.69-.2S409.62,126.39,409.62,126.5Z" style="fill:#e0e0e0"></path><path d="M384.93,126.82c-6.6,0-12.8,0-17.46,0-7.35-.06-7.35-.1-7.35-.27s0-.21,7.35-.27c4.67,0,10.87-.06,17.46-.06s12.79,0,17.46.06c7.35.06,7.35.09,7.35.27s0,.21-7.35.27C397.72,126.8,391.52,126.82,384.93,126.82Zm-19.24-.32c4.29,0,10.94.07,19.24.07s14.95,0,19.24-.07c-4.29,0-10.94-.08-19.24-.08S370,126.46,365.69,126.5Z" style="fill:#e0e0e0"></path><path d="M443.72,155.73c0,.11-11.05.19-24.68.19s-24.69-.08-24.69-.19,11-.2,24.69-.2S443.72,155.62,443.72,155.73Z" style="fill:#e0e0e0"></path><path d="M419,156.05c-6.6,0-12.8,0-17.46-.06-7.36-.06-7.36-.09-7.36-.26s0-.21,7.36-.27c4.66,0,10.86-.06,17.46-.06s12.79,0,17.45.06c7.36.06,7.36.09,7.36.27s0,.2-7.36.26C431.83,156,425.63,156.05,419,156.05Zm-19.23-.32c4.29,0,10.93.07,19.23.07s14.93,0,19.22-.07c-4.29,0-10.93-.08-19.22-.08S404.1,155.68,399.81,155.73Z" style="fill:#e0e0e0"></path><path d="M436.91,133.81c0,.11-17.16.2-38.33.2s-38.34-.09-38.34-.2,17.16-.2,38.34-.2S436.91,133.7,436.91,133.81Z" style="fill:#455a64"></path><path d="M398.58,134.13c-10.24,0-19.87,0-27.11-.06-8.4,0-10.59-.07-11.15-.15h0c-.16,0-.16-.06-.16-.1s0-.08.15-.11h0c.57-.08,2.75-.11,11.16-.15,7.24,0,16.86-.06,27.11-.06s19.86,0,27.1.06c8.41,0,10.59.07,11.16.15h0c.16,0,.16.06.16.11s0,.07-.16.1h0c-.57.08-2.76.11-11.16.15C418.44,134.11,408.81,134.13,398.58,134.13Zm-29.91-.32c7.06,0,17.9.07,29.91.07s22.84,0,29.9-.07c-7.06-.05-17.9-.08-29.9-.08S375.73,133.76,368.67,133.81Z" style="fill:#455a64"></path><path d="M302.07,111.89c0,.11-4,.2-8.95.2s-9-.09-9-.2,4-.2,9-.2S302.07,111.78,302.07,111.89Z" style="fill:#e0e0e0"></path><path d="M293.12,112.21c-2.4,0-4.65,0-6.34-.06-2.74-.06-2.74-.11-2.74-.26s0-.21,2.74-.27c1.69,0,3.94-.06,6.34-.06s4.64,0,6.33.06c2.74.06,2.74.11,2.74.27s0,.2-2.74.26C297.76,112.19,295.51,112.21,293.12,112.21Zm-7-.32c1.55,0,4,.07,7,.07s5.43,0,7-.07c-1.56,0-4-.08-7-.08S287.68,111.84,286.13,111.89Z" style="fill:#e0e0e0"></path><path d="M302.07,199.56c0,.11-4,.2-8.95.2s-9-.09-9-.2,4-.2,9-.2S302.07,199.45,302.07,199.56Z" style="fill:#e0e0e0"></path><path d="M293.12,199.89c-2.4,0-4.65,0-6.34-.06-2.74-.06-2.74-.11-2.74-.27s0-.2,2.74-.26c1.69,0,3.94-.06,6.34-.06s4.64,0,6.33.06c2.74.06,2.74.11,2.74.26s0,.21-2.74.27C297.76,199.87,295.51,199.89,293.12,199.89Zm-7-.33c1.56.05,4,.08,7,.08s5.42,0,7-.08c-1.56,0-4-.07-7-.07S287.69,199.52,286.13,199.56Z" style="fill:#e0e0e0"></path><path d="M310.94,141.11c0,.11-4,.2-8.95.2s-9-.09-9-.2,4-.2,9-.2S310.94,141,310.94,141.11Z" style="fill:#e0e0e0"></path><path d="M302,141.44c-2.4,0-4.65,0-6.34-.06-2.74-.06-2.74-.11-2.74-.27s0-.2,2.74-.26c1.7,0,4-.06,6.34-.06s4.64,0,6.33.06c2.75.06,2.75.1,2.75.26s0,.21-2.75.27C306.63,141.42,304.38,141.44,302,141.44Zm-7-.33c1.56,0,4,.08,7,.08s5.42,0,7-.08c-1.56,0-4-.07-7-.07S296.56,141.07,295,141.11Z" style="fill:#e0e0e0"></path><path d="M454.46,141.11c0,.11-4,.2-9,.2s-8.95-.09-8.95-.2,4-.2,8.95-.2S454.46,141,454.46,141.11Z" style="fill:#16C6EF"></path><path d="M445.5,141.44c-2.39,0-4.64,0-6.33-.06-2.75-.06-2.75-.11-2.75-.27s0-.2,2.75-.26c1.69,0,3.94-.06,6.33-.06s4.64,0,6.34.06c2.74.06,2.74.1,2.74.26s0,.21-2.74.27C450.14,141.42,447.9,141.44,445.5,141.44Zm-7-.33c1.56,0,4,.08,7,.08s5.43,0,7-.08c-1.56,0-4-.07-7-.07S440.08,141.07,438.52,141.11Z" style="fill:#16C6EF"></path><path d="M327,170.3c0,.11-7.5.19-16.75.19s-16.76-.08-16.76-.19,7.5-.2,16.76-.2S327,170.19,327,170.3Z" style="fill:#16C6EF"></path><path d="M310.26,170.62c-4.48,0-8.68,0-11.85-.06-5-.06-5-.09-5-.26s0-.21,5-.27c3.16,0,7.37-.06,11.85-.06s8.68,0,11.84.06c5,.06,5,.09,5,.27s0,.2-5,.26C318.93,170.6,314.73,170.62,310.26,170.62Zm-13.07-.32c2.92,0,7.44.07,13.07.07s10.14,0,13.06-.07c-2.92-.05-7.44-.08-13.06-.08S300.11,170.25,297.19,170.3Z" style="fill:#16C6EF"></path><path d="M365.75,170.3c0,.11-7.5.19-16.75.19s-16.76-.08-16.76-.19,7.5-.2,16.76-.2S365.75,170.19,365.75,170.3Z" style="fill:#e0e0e0"></path><path d="M349,170.62c-4.48,0-8.68,0-11.85-.06-5-.06-5-.09-5-.26s0-.21,5-.27c3.16,0,7.37-.06,11.85-.06s8.68,0,11.84.06c5,.06,5,.09,5,.27s0,.2-5,.26C357.67,170.6,353.47,170.62,349,170.62Zm-13.07-.32c2.92,0,7.44.07,13.07.07s10.14,0,13.06-.07c-2.92-.05-7.44-.08-13.06-.08S338.85,170.25,335.93,170.3Z" style="fill:#e0e0e0"></path><path d="M350.94,177.6c0,.11-11.05.2-24.69.2s-24.68-.09-24.68-.2,11.05-.2,24.68-.2S350.94,177.49,350.94,177.6Z" style="fill:#e0e0e0"></path><path d="M326.25,177.93c-6.59,0-12.79,0-17.45-.06-7.36-.06-7.36-.09-7.36-.27s0-.2,7.36-.26c4.66,0,10.86-.06,17.45-.06s12.8,0,17.46.06c7.36.06,7.36.09,7.36.26s0,.21-7.36.27C339.05,177.91,332.85,177.93,326.25,177.93ZM307,177.6c4.29,0,10.93.08,19.22.08s14.94,0,19.23-.08c-4.29,0-10.93-.07-19.23-.07S311.32,177.56,307,177.6Z" style="fill:#e0e0e0"></path><path d="M350.94,184.91c0,.11-11.05.2-24.69.2s-24.68-.09-24.68-.2,11.05-.2,24.68-.2S350.94,184.8,350.94,184.91Z" style="fill:#e0e0e0"></path><path d="M326.25,185.23c-6.59,0-12.79,0-17.45-.06-7.36-.06-7.36-.09-7.36-.26s0-.21,7.36-.27c4.66,0,10.86-.06,17.45-.06s12.79,0,17.46.06c7.36.06,7.36.09,7.36.27s0,.2-7.36.26C339.05,185.21,332.85,185.23,326.25,185.23ZM307,184.91c4.29,0,10.94.07,19.24.07s14.95,0,19.24-.07c-4.29,0-10.93-.08-19.24-.08S311.3,184.86,307,184.91Z" style="fill:#e0e0e0"></path><path d="M370.26,192.21c0,.11-11.05.2-24.68.2s-24.69-.09-24.69-.2,11.05-.19,24.69-.19S370.26,192.1,370.26,192.21Z" style="fill:#e0e0e0"></path><path d="M345.58,192.54c-6.59,0-12.79,0-17.46-.06-7.36-.06-7.36-.09-7.36-.27s0-.2,7.36-.26c4.66,0,10.86-.06,17.46-.06s12.79,0,17.45.06c7.36.06,7.36.09,7.36.26s0,.21-7.36.27C358.36,192.52,352.16,192.54,345.58,192.54Zm-19.25-.33c4.3,0,10.94.08,19.25.08s14.94,0,19.24-.08c-4.3,0-10.94-.07-19.24-.07S330.63,192.17,326.33,192.21Z" style="fill:#e0e0e0"></path><path d="M430.6,192.21c0,.11-11.05.2-24.69.2s-24.69-.09-24.69-.2,11.06-.19,24.69-.19S430.6,192.1,430.6,192.21Z" style="fill:#e0e0e0"></path><path d="M405.91,192.54c-6.59,0-12.79,0-17.46-.06-7.35-.06-7.35-.09-7.35-.27s0-.2,7.35-.26c4.67,0,10.87-.06,17.46-.06s12.8,0,17.46.06c7.35.06,7.35.09,7.35.26s0,.21-7.35.27C418.7,192.52,412.5,192.54,405.91,192.54Zm-19.24-.33c4.29,0,10.94.08,19.24.08s14.95,0,19.24-.08c-4.29,0-10.94-.07-19.24-.07S391,192.17,386.67,192.21Z" style="fill:#e0e0e0"></path><path d="M409.62,177.6c0,.11-11.06.2-24.69.2s-24.69-.09-24.69-.2,11.05-.2,24.69-.2S409.62,177.49,409.62,177.6Z" style="fill:#e0e0e0"></path><path d="M384.93,177.93c-6.59,0-12.79,0-17.46-.06-7.35-.06-7.35-.09-7.35-.27s0-.2,7.35-.26c4.66,0,10.86-.06,17.46-.06s12.79,0,17.46.06c7.35.06,7.35.09,7.35.26s0,.21-7.35.27C397.72,177.91,391.52,177.93,384.93,177.93Zm-19.23-.33c4.29,0,10.94.08,19.23.08s14.93,0,19.22-.08c-4.29,0-10.93-.07-19.22-.07S370,177.56,365.7,177.6Z" style="fill:#e0e0e0"></path><path d="M436.91,184.91c0,.11-17.16.2-38.33.2s-38.34-.09-38.34-.2,17.16-.2,38.34-.2S436.91,184.8,436.91,184.91Z" style="fill:#455a64"></path><path d="M398.58,185.23c-10.25,0-19.87,0-27.11-.06-8.41,0-10.59-.07-11.16-.15h0v0c-.16,0-.16-.06-.16-.1s0-.08.15-.11h0c.57-.09,2.76-.11,11.16-.16,7.25,0,16.88-.06,27.11-.06s19.85,0,27.1.06c8.41.05,10.59.07,11.16.16h0c.16,0,.16.06.16.11s0,.08-.16.1v0h0c-.57.08-2.75.11-11.16.15C418.44,185.21,408.82,185.23,398.58,185.23Zm-29.93-.32c7.06,0,17.91.07,29.93.07s22.87,0,29.93-.07c-7.06,0-17.91-.08-29.93-.08S375.71,184.86,368.65,184.91Z" style="fill:#455a64"></path><path d="M310.94,192.21c0,.11-4,.2-8.95.2s-9-.09-9-.2,4-.19,9-.19S310.94,192.1,310.94,192.21Z" style="fill:#e0e0e0"></path><path d="M302,192.54c-2.39,0-4.64,0-6.34-.06-2.74-.06-2.74-.11-2.74-.27s0-.2,2.74-.26c1.69,0,3.94-.06,6.34-.06s4.64,0,6.33.06c2.75.06,2.75.11,2.75.26s0,.21-2.75.27C306.63,192.52,304.38,192.54,302,192.54Zm-7-.33c1.56,0,4,.08,7,.08s5.43,0,7-.08c-1.56,0-4-.07-7-.07S296.56,192.17,295,192.21Z" style="fill:#e0e0e0"></path><path d="M454.46,192.21c0,.11-4,.2-9,.2s-8.95-.09-8.95-.2,4-.19,8.95-.19S454.46,192.1,454.46,192.21Z" style="fill:#16C6EF"></path><path d="M445.5,192.54c-2.39,0-4.64,0-6.33-.06-2.75-.06-2.75-.11-2.75-.27s0-.2,2.75-.26c1.69,0,3.94-.06,6.33-.06s4.64,0,6.34.06c2.74.06,2.74.11,2.74.26s0,.21-2.74.27C450.14,192.52,447.89,192.54,445.5,192.54Zm-7-.33c1.56,0,4,.08,7,.08s5.43,0,7-.08c-1.56,0-4-.07-7-.07S440.07,192.17,438.51,192.21Z" style="fill:#16C6EF"></path><rect x="504.18" y="62.1" width="67.1" height="47.83" style="fill:#16C6EF"></rect><path d="M571.81,69.2c0,.16-15.14.3-33.83.3s-33.83-.14-33.83-.3,15.15-.29,33.83-.29S571.81,69,571.81,69.2Z" style="fill:#fff"></path><path d="M509.66,65.71a.91.91,0,1,1-.9-.79A.85.85,0,0,1,509.66,65.71Z" style="fill:#fff"></path><path d="M513,65.71a.91.91,0,1,1-.9-.79A.85.85,0,0,1,513,65.71Z" style="fill:#fff"></path><path d="M516.25,65.71a.86.86,0,0,1-.91.79.8.8,0,1,1,0-1.58A.86.86,0,0,1,516.25,65.71Z" style="fill:#fff"></path><path d="M529,88.28c0,2.87-2.08,4.6-5.51,4.6h-3.62v4.26h-1.43V83.65h5C526.92,83.65,529,85.39,529,88.28Zm-1.42,0c0-2.16-1.43-3.39-4.13-3.39h-3.58v6.74h3.58C526.15,91.63,527.58,90.4,527.58,88.28Z" style="fill:#fff"></path><path d="M543.35,83.65V97.14h-1.41V90.92H533.5v6.22h-1.42V83.65h1.42v6h8.44v-6Z" style="fill:#fff"></path><path d="M558.3,88.28c0,2.87-2.08,4.6-5.51,4.6h-3.63v4.26h-1.42V83.65h5C556.22,83.65,558.3,85.39,558.3,88.28Zm-1.43,0c0-2.16-1.42-3.39-4.12-3.39h-3.59v6.74h3.59C555.45,91.63,556.87,90.4,556.87,88.28Z" style="fill:#fff"></path><rect x="208.61" y="50.22" width="41.15" height="29.33" style="fill:#16C6EF"></rect><path d="M222.49,63.84v5.83h-1.35V67.28h-2.65v2.39h-1.34V63.84h1.34v2.3h2.65v-2.3Z" style="fill:#fff"></path><path d="M225.07,64.94h-1.86v-1.1h5.07v1.1h-1.86v4.73h-1.35Z" style="fill:#fff"></path><path d="M236.41,63.84h1.35v4.73h2.92v1.1h-4.27Z" style="fill:#fff"></path><path d="M234.33,69.67v-3.5l-1.71,2.88H232l-1.7-2.8v3.42H229V63.84h1.12l2.18,3.62,2.14-3.62h1.11v5.83Z" style="fill:#fff"></path><path d="M250.08,54.58c0,.07-9.29.12-20.74.12s-20.75-.05-20.75-.12,9.29-.13,20.75-.13S250.08,54.5,250.08,54.58Z" style="fill:#fff"></path><path d="M212,52.43a.56.56,0,1,1-.56-.48A.53.53,0,0,1,212,52.43Z" style="fill:#fff"></path><path d="M214,52.43a.56.56,0,1,1-.56-.48A.53.53,0,0,1,214,52.43Z" style="fill:#fff"></path><path d="M216,52.43a.56.56,0,1,1-.56-.48A.53.53,0,0,1,216,52.43Z" style="fill:#fff"></path><path d="M120.4,112.09a9.06,9.06,0,0,1,9.41-9.2,8.63,8.63,0,0,1,6.45,2.52l-.83.85a7.6,7.6,0,0,0-5.57-2.15,8,8,0,1,0,0,16,7.63,7.63,0,0,0,5.57-2.18l.83.86a8.68,8.68,0,0,1-6.45,2.53A9.06,9.06,0,0,1,120.4,112.09Z" style="fill:#16C6EF"></path><path d="M138.74,118.82l.6-1a8.64,8.64,0,0,0,6,2.28c3.63,0,5.24-1.58,5.24-3.55,0-5.44-11.32-2.18-11.32-8.86,0-2.56,2-4.82,6.42-4.82a9.68,9.68,0,0,1,5.47,1.64l-.5,1.06a8.92,8.92,0,0,0-5-1.53c-3.52,0-5.1,1.63-5.1,3.63,0,5.44,11.32,2.22,11.32,8.8,0,2.57-2,4.79-6.53,4.79A9.31,9.31,0,0,1,138.74,118.82Z" style="fill:#16C6EF"></path><path d="M154.52,118.82l.59-1a8.67,8.67,0,0,0,6,2.28c3.62,0,5.23-1.58,5.23-3.55,0-5.44-11.32-2.18-11.32-8.86,0-2.56,2-4.82,6.42-4.82a9.66,9.66,0,0,1,5.47,1.64l-.49,1.06a8.93,8.93,0,0,0-5-1.53c-3.52,0-5.1,1.63-5.1,3.63,0,5.44,11.32,2.22,11.32,8.8,0,2.57-2.05,4.79-6.53,4.79A9.29,9.29,0,0,1,154.52,118.82Z" style="fill:#16C6EF"></path><path d="M183.09,135.66s0-.33,0-1,0-1.57,0-2.76c0-2.43,0-6-.06-10.49,0-9.06-.08-22.07-.14-37.95l.26.26-80.76.06h0l.32-.32c0,18.53,0,36.16,0,52.16l-.3-.29,58.1.14,16.66.08,4.45,0h1.15l.41,0-.37,0-1.12,0-4.39,0-16.6.08-58.29.15H102v-.3c0-16,0-33.63,0-52.16v-.32h.33l80.76.07h.25v.25c-.06,16-.1,29-.13,38.11,0,4.49-.05,8-.07,10.43,0,1.17,0,2.08,0,2.71S183.09,135.66,183.09,135.66Z" style="fill:#16C6EF"></path><path d="M183.09,91.24c0,.18-18.09.32-40.4.32s-40.4-.14-40.4-.32,18.08-.32,40.4-.32S183.09,91.07,183.09,91.24Z" style="fill:#16C6EF"></path><path d="M108.29,87.44a.93.93,0,0,1-1,.86.87.87,0,1,1,1-.86Z" style="fill:#16C6EF"></path><path d="M111.89,87.44a.94.94,0,0,1-1,.86.87.87,0,1,1,0-1.73A.94.94,0,0,1,111.89,87.44Z" style="fill:#16C6EF"></path><path d="M115.48,87.44a1,1,0,1,1-1-.87A.93.93,0,0,1,115.48,87.44Z" style="fill:#16C6EF"></path></g></svg>